ply
format ascii 1.0
element vertex 152
property float x
property float y
property float z
end_header
-211.882354736328125 165.816665649414062 278.351898193359375
-187.611663818359375 137.5537109375 279.764312744140625
-195.800186157226562 -105.47723388671875 257.3243408203125
-28.9438686370849609 -235.147247314453125 259.90673828125
24.0509910583496094 -230.432098388671875 265.142578125
-211.882354736328125 165.816665649414062 250.079696655273438
-187.611663818359375 137.5537109375 251.82037353515625
-195.800186157226562 -105.47723388671875 224.165145874023438
13.6410732269287109 35.6072921752929688 271.804046630859375
35.58624267578125 13.6190280914306641 271.7982177734375
-28.9438686370849609 -235.147247314453125 227.347702026367188
24.0509910583496094 -230.432098388671875 233.800430297851562
222.094772338867188 -91.9979019165039062 275.326995849609375
9.66959285736083984 296.89849853515625 279.4876708984375
-31.5063419342041016 250.49169921875 266.6748046875
32.4970054626464844 253.574966430664062 280
-195.800186157226562 -105.47723388671875 190.561492919921875
13.6410732269287109 35.6072921752929688 247.304611206054688
35.58624267578125 13.6190280914306641 247.297698974609375
-28.9438686370849609 -235.147247314453125 194.352264404296875
24.0509910583496094 -230.432098388671875 202.038162231445312
222.094772338867188 -91.9979019165039062 251.5008544921875
9.66959285736083984 296.89849853515625 259.84283447265625
32.1863365173339844 280.391357421875 263.52264404296875
37.9704742431640625 256.4600830078125 262.0726318359375
-195.800186157226562 -105.47723388671875 156.420669555664062
13.6410732269287109 35.6072921752929688 222.413558959960938
35.58624267578125 13.6190280914306641 222.405502319335938
201.710037231445312 157.212203979492188 280
195.445388793945312 115.504486083984375 270.46685791015625
212.019454956054688 99.7531661987304688 269.784881591796875
239.725494384765625 100.560462951660156 274.09686279296875
222.094772338867188 -91.9979019165039062 227.293838500976562
9.66959285736083984 296.89849853515625 239.832260131835938
32.1863365173339844 280.391357421875 244.0374755859375
37.9704742431640625 256.4600830078125 242.380416870117188
-245.39794921875 -90.421417236328125 113.029312133789062
-190.992538452148438 -101.293678283691406 123.567596435546875
13.6410732269287109 35.6072921752929688 197.059127807617188
35.58624267578125 13.6190280914306641 197.0499267578125
207.495620727539062 163.860855102539062 265.527130126953125
222.094772338867188 -91.9979019165039062 202.636184692382812
9.66959285736083984 296.89849853515625 219.39544677734375
32.1863365173339844 280.391357421875 224.13720703125
37.9704742431640625 256.4600830078125 222.268722534179688
-245.39794921875 -90.421417236328125 76.4128875732421875
-190.9833984375 -101.285728454589844 88.2999420166015625
13.6410732269287109 35.6072921752929688 171.16461181640625
35.58624267578125 13.6190280914306641 171.15423583984375
207.495620727539062 163.860855102539062 248.368881225585938
262.662811279296875 135.762039184570312 252.060516357421875
222.094772338867188 -91.9979019165039062 177.453277587890625
9.66959285736083984 296.89849853515625 198.467056274414062
32.1863365173339844 280.391357421875 203.75830078125
37.9704742431640625 256.4600830078125 201.673294067382812
-362.7674560546875 -7.01648139953613281 20
-338.43109130859375 -46.3210678100585938 20
-312.30548095703125 -84.45977783203125 20
-245.39794921875 -90.421417236328125 38.9157485961914062
-190.974334716796875 -101.27783203125 52.1848411560058594
13.6410732269287109 35.6072921752929688 144.647262573242188
35.58624267578125 13.6190280914306641 144.63568115234375
207.495620727539062 163.860855102539062 230.797927856445312
262.662811279296875 135.762039184570312 234.9173583984375
-7.01648139953613281 -362.7674560546875 20
33.3701019287109375 -385.26263427734375 20
222.094772338867188 -91.9979019165039062 151.664642333984375
9.66959285736083984 296.89849853515625 176.976181030273438
32.1863365173339844 280.391357421875 182.831680297851562
37.9704742431640625 256.4600830078125 180.524322509765625
-279.630035400390625 41.8403129577636719 20
-257.63873291015625 6.32316923141479492 20
-234.030609130859375 -28.14044189453125 20
-208.856033325195312 -61.4769744873046875 20
-175.539031982421875 -87.846221923828125 23.6930427551269531
18.6717548370361328 40.4107666015625 120.340110778808594
40.4127235412597656 18.6738052368164062 120.341300964355469
207.495620727539062 163.860855102539062 212.754714965820312
235.858535766601562 166.525466918945312 221.232635498046875
252.646224975585938 156.217880249023438 222.027572631835938
262.662811279296875 135.762039184570312 217.313430786132812
56.3085136413574219 -255.0101318359375 32
78.3351898193359375 -299.957550048828125 20
222.094772338867188 -91.9979019165039062 125.182899475097656
9.66959285736083984 296.89849853515625 154.845184326171875
32.1863365173339844 280.391357421875 161.281723022460938
37.9704742431640625 256.4600830078125 158.745407104492188
-186.8526611328125 96.3621292114257812 32
-189.243972778320312 50.8891448974609375 20
-167.767044067382812 19.5366859436035156 20
-144.865066528320312 -10.7904386520385742 20
-120.586906433105469 -40.0275115966796875 20
18.6763153076171875 40.4151191711425781 92.5919342041015625
40.4198875427246094 18.6813106536865234 92.595123291015625
207.495620727539062 163.860855102539062 194.174072265625
235.858535766601562 166.525466918945312 203.493270874023438
252.646224975585938 156.217880249023438 204.367095947265625
262.662811279296875 135.762039184570312 199.185150146484375
83.2000274658203125 -209.250030517578125 20
116.400382995605469 -227.742507934570312 20
225.165283203125 -85.4570541381835938 101.250068664550781
9.66959285736083984 296.89849853515625 131.988494873046875
32.1863365173339844 280.391357421875 139.025146484375
37.9704742431640625 256.4600830078125 136.252365112304688
-148.763442993164062 118.745758056640625 20
-130.463546752929688 89.1904296875 20
-110.818222045898438 60.5117835998535156 20
-89.8693771362304688 32.7710304260253906 20
-49.7355613708496094 21.6265029907226562 32
18.66864013671875 40.4077911376953125 63.9257926940917969
40.4272880554199219 18.6890602111816406 63.9400520324707031
207.495620727539062 163.860855102539062 174.984161376953125
235.858535766601562 166.525466918945312 185.1722412109375
252.646224975585938 156.217880249023438 186.127517700195312
262.662811279296875 135.762039184570312 180.462448120117188
118.745758056640625 -148.763442993164062 20
149.114700317382812 -165.6788330078125 20
225.165283203125 -85.4570541381835938 73.396514892578125
18.4187698364257812 300.52252197265625 113.515937805175781
38.0630989074707031 283.150115966796875 119.537544250488281
44.5203781127929688 259.91259765625 117.021064758300781
-96.101287841796875 149.693344116210938 20
-79.286865234375 122.537117004394531 20
-61.2362060546875 96.1864089965820312 20
-41.9878463745117188 70.6974563598632812 20
-5.11181735992431641 60.4575691223144531 32
18.6606903076171875 40.4001998901367188 34.2295150756835938
40.4349555969238281 18.6970882415771484 34.257171630859375
207.495620727539062 163.860855102539062 155.105300903320312
235.858535766601562 166.525466918945312 166.193435668945312
252.646224975585938 156.217880249023438 167.233108520507812
262.662811279296875 135.762039184570312 161.067550659179688
149.693344116210938 -96.101287841796875 20
186.052642822265625 -95.6023635864257812 29.9660549163818359
225.165283203125 -85.4570541381835938 44.5429649353027344
18.4284095764160156 300.526519775390625 89.3572540283203125
38.0548515319824219 283.146240234375 95.8751373291015625
44.5228500366210938 259.913909912109375 93.1534881591796875
-49.7314949035644531 176.943161010742188 20
-34.2250328063964844 151.899368286132812 20
-17.5785102844238281 127.598442077636719 20
0.172550097107887268 104.092239379882812 20
18.9902687072753906 81.4309234619140625 20
38.8344841003417969 59.6628532409667969 20
59.6628532409667969 38.8344841003417969 20
207.495620727539062 163.860855102539062 134.448455810546875
235.858535766601562 166.525466918945312 146.47186279296875
252.646224975585938 156.217880249023438 147.5992431640625
262.662811279296875 135.762039184570312 140.91363525390625
176.943161010742188 -49.7314949035644531 20
202.676376342773438 -64.0647964477539062 20
234.442901611328125 -65.6937408447265625 27.5715160369873047
