ply
format ascii 1.0
element vertex 693
property float x
property float y
property float z
end_header
-260.99951171875 118.132003784179688 280
-248.531417846679688 105.241004943847656 280
-221.985702514648438 -92.0089950561523438 255.079742431640625
-202.422409057617188 -99.2930145263671875 256.284912109375
-189.727142333984375 -115.534812927246094 255.254638671875
-26.8368930816650391 -232.930709838867188 252.699432373046875
1.23503541946411133 -221.898971557617188 257.053009033203125
20.3883934020996094 -227.769287109375 257.664581298828125
34.6201629638671875 -244.062240600585938 255.995162963867188
-234.549606323242188 166.934768676757812 254.437667846679688
-211.20538330078125 165.541397094726562 258.0634765625
-197.0125732421875 155.858932495117188 258.84600830078125
-188.40374755859375 140.664321899414062 257.799591064453125
-190.262832641601562 114.300773620605469 253.2425537109375
-221.985702514648438 -92.0089950561523438 213.399581909179688
-202.422409057617188 -99.2930145263671875 214.809829711914062
-189.727142333984375 -115.534812927246094 213.604248046875
-17.7979354858398438 33.6979179382324219 263.451263427734375
4.50869321823120117 37.8390388488769531 266.996795654296875
20.2182235717773438 32.3491592407226562 267.85321044921875
32.0360336303710938 20.632476806640625 266.996429443359375
38.0873641967773438 -1.23506546020507812 263.45037841796875
-26.8368930816650391 -232.930709838867188 210.61419677734375
1.23503541946411133 -221.898971557617188 215.708663940429688
20.3883934020996094 -227.769287109375 216.424301147460938
34.6201629638671875 -244.062240600585938 214.47076416015625
213.998382568359375 -93.5194168090820312 261.19256591796875
231.876907348632812 -92.5159759521484375 262.716094970703125
247.160308837890625 -99.0025787353515625 262.393585205078125
259.807403564453125 -114.443954467773438 259.907806396484375
-234.549606323242188 166.934768676757812 218.215927124023438
-211.20538330078125 165.541397094726562 222.376556396484375
-197.0125732421875 155.858932495117188 223.274505615234375
-188.40374755859375 140.664321899414062 222.073760986328125
-21.6105556488037109 290.752105712890625 280
-32.8913230895996094 258.917724609375 272.00067138671875
-28.3575363159179688 243.246566772460938 269.7945556640625
-18.7882556915283203 232.953521728515625 269.43768310546875
-5.11498165130615234 227.460601806640625 270.65814208984375
15.854954719543457 231.141525268554688 274.854095458984375
-221.985702514648438 -92.0089950561523438 171.124496459960938
-202.422409057617188 -99.2930145263671875 172.742767333984375
-189.727142333984375 -115.534812927246094 171.359344482421875
-17.7979354858398438 33.6979179382324219 228.559066772460938
4.50869321823120117 37.8390388488769531 232.627609252929688
20.2182235717773438 32.3491592407226562 233.610336303710938
32.0360336303710938 20.632476806640625 232.627166748046875
38.0873641967773438 -1.23506546020507812 228.55804443359375
-26.8368930816650391 -232.930709838867188 167.928253173828125
1.23503541946411133 -221.898971557617188 173.774185180664062
192.106948852539062 128.949737548828125 277.03070068359375
198.48272705078125 110.481346130371094 273.412628173828125
209.337570190429688 101.025688171386719 272.342010498046875
222.708023071289062 97.1535873413085938 272.799957275390625
238.805801391601562 100.134971618652344 275.110076904296875
258.330902099609375 112.716049194335938 280
213.998382568359375 -93.5194168090820312 225.967208862304688
231.876907348632812 -92.5159759521484375 227.715469360351562
247.160308837890625 -99.0025787353515625 227.345367431640625
259.807403564453125 -114.443954467773438 224.492935180664062
-234.549606323242188 166.934768676757812 181.400283813476562
-211.20538330078125 165.541397094726562 186.104522705078125
-197.0125732421875 155.858932495117188 187.119781494140625
-188.40374755859375 140.664321899414062 185.762161254882812
-19.9215145111083984 292.519256591796875 251.971710205078125
3.2733452320098877 297.96466064453125 257.78192138671875
17.2108650207519531 294.023773193359375 259.67706298828125
27.5816173553466797 286.285858154296875 259.989044189453125
35.0228805541992188 275.11676025390625 258.921875
38.0674095153808594 258.3714599609375 255.718612670898438
-221.985702514648438 -92.0089950561523438 128.156280517578125
-202.422409057617188 -99.2930145263671875 129.985992431640625
-189.727142333984375 -115.534812927246094 128.42181396484375
-181.200698852539062 -137.895355224609375 124.601348876953125
-17.7979354858398438 33.6979179382324219 193.09478759765625
4.50869321823120117 37.8390388488769531 197.69488525390625
20.2182235717773438 32.3491592407226562 198.806015014648438
32.0360336303710938 20.632476806640625 197.69439697265625
38.0873641967773438 -1.23506546020507812 193.0936279296875
-26.11456298828125 -231.543441772460938 125
1.23503541946411133 -221.898971557617188 131.15216064453125
209.335220336914062 164.738845825195312 259.519256591796875
225.113327026367188 168.101028442382812 262.378265380859375
238.063766479492188 165.833572387695312 263.336395263671875
249.166229248046875 159.468963623046875 262.921112060546875
258.410797119140625 148.403228759765625 260.968780517578125
262.572540283203125 123.648612976074219 254.687149047851562
213.998382568359375 -93.5194168090820312 190.164306640625
231.876907348632812 -92.5159759521484375 192.140960693359375
247.160308837890625 -99.0025787353515625 191.722518920898438
259.807403564453125 -114.443954467773438 188.497406005859375
-234.549606323242188 166.934768676757812 143.901443481445312
-211.20538330078125 165.541397094726562 149.159347534179688
-197.0125732421875 155.858932495117188 150.294113159179688
-188.40374755859375 140.664321899414062 148.776702880859375
-19.9215145111083984 292.519256591796875 222.779037475585938
3.2733452320098877 297.96466064453125 229.273117065429688
17.2108650207519531 294.023773193359375 231.39129638671875
27.5816173553466797 286.285858154296875 231.740020751953125
35.0228805541992188 275.11676025390625 230.547225952148438
38.0674095153808594 258.3714599609375 226.966949462890625
-217.337265014648438 -86.1241836547851562 86.8427658081054688
-198.52490234375 -94.1962738037109375 88.5336837768554688
-185.390289306640625 -109.675064086914062 87.0711517333984375
-181.184585571289062 -137.87286376953125 80.4263763427734375
-269.923553466796875 -301.402740478515625 20
-17.7979354858398438 33.6979179382324219 156.972366333007812
4.50869321823120117 37.8390388488769531 162.1138916015625
20.2182235717773438 32.3491592407226562 163.355789184570312
32.0360336303710938 20.632476806640625 162.11334228515625
38.0873641967773438 -1.23506546020507812 156.9710693359375
-151.3050537109375 -372.320159912109375 20.8935871124267578
-132.44683837890625 -385.83148193359375 20
-20.2930564880371094 -220.362991333007812 84.9845428466796875
4.35128641128540039 -215.67742919921875 90.0143890380859375
209.335220336914062 164.738845825195312 231.21490478515625
225.113327026367188 168.101028442382812 234.410446166992188
238.063766479492188 165.833572387695312 235.481338500976562
249.166229248046875 159.468963623046875 235.017166137695312
258.410797119140625 148.403228759765625 232.835067749023438
262.572540283203125 123.648612976074219 225.814071655273438
213.998382568359375 -93.5194168090820312 153.696975708007812
231.876907348632812 -92.5159759521484375 155.906280517578125
247.160308837890625 -99.0025787353515625 155.438583374023438
259.807403564453125 -114.443954467773438 151.833892822265625
-226.363845825195312 174.486953735351562 109.657081604003906
-206.163345336914062 170.341964721679688 113.968101501464844
-192.428192138671875 160.363143920898438 115.031097412109375
-183.350860595703125 145.787307739257812 113.628952026367188
-19.9215145111083984 292.519256591796875 192.980194091796875
3.2733452320098877 297.96466064453125 200.172332763671875
17.2108650207519531 294.023773193359375 202.518203735351562
27.5816173553466797 286.285858154296875 202.904403686523438
35.0228805541992188 275.11676025390625 201.583389282226562
38.0674095153808594 258.3714599609375 197.618255615234375
-217.34820556640625 -86.138031005859375 42.4255561828613281
-198.534149169921875 -94.2083587646484375 44.2991142272949219
-185.400375366210938 -109.688690185546875 42.678741455078125
-181.205825805664062 -137.902511596679688 35.3126373291015625
-169.934280395507812 -157.028854370117188 32
-11.572906494140625 42.9948654174804688 124.15155029296875
4.50869321823120117 37.8390388488769531 125.7940673828125
20.2182235717773438 32.3491592407226562 127.169456481933594
32.0360336303710938 20.632476806640625 125.79345703125
43.7102851867675781 8.42399024963378906 124.145751953125
-82.9036407470703125 -250.457107543945312 20
-48.9041633605957031 -231.357223510742188 32
-20.2930564880371094 -220.362991333007812 40.3739776611328125
4.35487842559814453 -215.670257568359375 45.9473991394042969
209.339889526367188 164.748550415039062 202.326751708984375
225.113327026367188 168.101028442382812 205.861862182617188
238.063766479492188 165.833572387695312 207.047882080078125
249.166229248046875 159.468963623046875 206.5338134765625
258.410797119140625 148.403228759765625 204.117156982421875
262.572540283203125 123.648612976074219 196.341476440429688
194.91888427734375 -97.1451339721679688 112.89068603515625
216.552017211914062 -86.2701568603515625 119.255653381347656
233.924942016601562 -86.3969802856445312 121.255859375
249.182785034179688 -92.6290130615234375 120.822669982910156
262.388214111328125 -105.844535827636719 117.66033935546875
204.855255126953125 -369.97674560546875 20
224.932769775390625 -375.490203857421875 20
245.094406127929688 -380.6876220703125 20
265.335205078125 -385.56768798828125 20
-404.7080078125 189.973037719726562 20
-393.3505859375 174.815902709960938 20
-381.756500244140625 159.839019775390625 20
-369.928619384765625 145.046112060546875 20
-357.86981201171875 130.440811157226562 20
-345.583099365234375 116.026725769042969 20
-333.071502685546875 101.807411193847656 20
-226.363845825195312 174.486953735351562 70.8987884521484375
-206.16766357421875 170.337844848632812 75.6354827880859375
-192.434371948242188 160.3570556640625 76.8029556274414062
-183.360916137695312 145.777099609375 75.25933837890625
-19.9215145111083984 292.519256591796875 162.49530029296875
3.2733452320098877 297.96466064453125 170.401565551757812
17.2108650207519531 294.023773193359375 172.980361938476562
27.5816173553466797 286.285858154296875 173.4049072265625
35.0228805541992188 275.11676025390625 171.952728271484375
38.0674095153808594 258.3714599609375 167.593887329101562
-181.522003173828125 -40.7829551696777344 20
-166.567581176757812 -52.4059677124023438 20
-151.43243408203125 -63.7926521301269531 20
-136.120285034179688 -74.9402008056640625 20
-120.634941101074219 -85.8458633422851562 20
-11.572906494140625 42.9948654174804688 86.83245849609375
8.33035373687744141 43.745208740234375 91.4384841918945312
23.6082496643066406 37.7731971740722656 92.6962738037109375
35.6753730773925781 26.6641941070556641 91.4417266845703125
43.7141952514648438 8.43070888519287109 86.8291778564453125
-24.3023147583007812 -146.053756713867188 20
-7.71376132965087891 -155.19427490234375 20
9.01631927490234375 -164.0731201171875 20
25.8837985992431641 -172.688079833984375 20
209.335220336914062 164.738845825195312 172.765609741210938
225.113327026367188 168.101028442382812 176.656036376953125
238.063766479492188 165.833572387695312 177.959808349609375
249.166229248046875 159.468963623046875 177.394699096679688
258.410797119140625 148.403228759765625 174.738082885742188
262.572540283203125 123.648612976074219 166.190322875976562
194.91888427734375 -97.1451339721679688 74.4534683227539062
216.552017211914062 -86.2701568603515625 81.4504318237304688
233.929061889648438 -86.3846588134765625 83.6544189453125
249.186859130859375 -92.6161575317382812 83.1784133911132812
262.389739990234375 -105.839515686035156 79.6988067626953125
237.464950561523438 -254.777862548828125 20
255.728973388671875 -259.7933349609375 20
274.06951904296875 -264.521270751953125 20
292.482086181640625 -268.9605712890625 20
310.96209716796875 -273.110107421875 20
329.5050048828125 -276.968841552734375 20
348.106231689453125 -280.535858154296875 20
366.761199951171875 -283.81024169921875 20
385.46527099609375 -286.791229248046875 20
404.213897705078125 -289.478057861328125 20
-405.837615966796875 382.313995361328125 20
-397.501220703125 367.115386962890625 20
-388.927154541015625 352.049591064453125 20
-380.117462158203125 337.120361328125 20
-371.07440185546875 322.331298828125 20
-361.800140380859375 307.6861572265625 20
-352.296966552734375 293.188446044921875 20
-342.5672607421875 278.841827392578125 20
-332.613433837890625 264.6497802734375 20
-322.437896728515625 250.615859985351562 20
-312.04315185546875 236.743484497070312 20
-301.43182373046875 223.036087036132812 20
-290.60650634765625 209.4970703125 20
-279.561981201171875 196.1363525390625 20.0044670104980469
-268.3245849609375 182.937454223632812 20
-236.304550170898438 188.3106689453125 32
-224.941818237304688 175.798904418945312 32
-206.178207397460938 170.327804565429688 36.3275032043457031
-192.443984985351562 160.347610473632812 37.6035652160644531
-183.371246337890625 145.766632080078125 35.9164543151855469
-19.9215145111083984 292.519256591796875 131.237991333007812
3.2733452320098877 297.96466064453125 139.876480102539062
17.2108650207519531 294.023773193359375 142.694107055664062
27.5816173553466797 286.285858154296875 143.157974243164062
35.0228805541992188 275.11676025390625 141.571304321289062
38.0674095153808594 258.3714599609375 136.80877685546875
31.4669971466064453 228.855804443359375 125
-104.482917785644531 28.7815818786621094 20
-90.6306686401367188 18.3600635528564453 20
-76.6164321899414062 8.15741348266601562 20
-46.7354736328125 20.8571052551269531 32
-11.572906494140625 42.9948654174804688 48.5677947998046875
8.33788776397705078 43.7568511962890625 53.6064262390136719
23.6056785583496094 37.7690887451171875 54.9725685119628906
35.6681938171386719 26.6522998809814453 53.5979042053222656
43.7042007446289062 8.41353702545166016 48.5555686950683594
39.2275505065917969 -32.8697853088378906 32
40.9059982299804688 -65.2941055297851562 20
56.2179908752441406 -73.42034912109375 20
71.6557388305664062 -81.3050765991210938 20
209.335220336914062 164.738845825195312 142.45947265625
225.113327026367188 168.101028442382812 146.710189819335938
238.063766479492188 165.833572387695312 148.134719848632812
249.166229248046875 159.468963623046875 147.51727294921875
258.410797119140625 148.403228759765625 144.6146240234375
262.572540283203125 123.648612976074219 135.275222778320312
194.91888427734375 -97.1451339721679688 35.0423545837402344
216.552017211914062 -86.2701568603515625 42.6873245239257812
233.932815551757812 -86.3734512329101562 45.1005668640136719
249.1910400390625 -92.60296630859375 44.58135986328125
262.384674072265625 -105.856330871582031 40.7658348083496094
272.81719970703125 -129.890426635742188 32
289.115234375 -134.365997314453125 32
298.804534912109375 -165.354232788085938 20
315.656402587890625 -169.417236328125 20
332.569976806640625 -173.215042114257812 20
349.5411376953125 -176.746719360351562 20
366.565673828125 -180.011383056640625 20
383.639404296875 -183.008224487304688 20
400.758087158203125 -185.736526489257812 20
415 -209.758712768554688 10.5356636047363281
-356.545013427734375 390 0.369943976402282715
-323.445098876953125 390 13.9727621078491211
-304.312774658203125 382.658721923828125 20
-295.99432373046875 369.05474853515625 20
-287.463226318359375 355.5831298828125 20
-278.7215576171875 342.247161865234375 20
-269.771514892578125 329.050140380859375 20
-260.61529541015625 315.995361328125 20
-251.255142211914062 303.085968017578125 20
-241.693374633789062 290.325225830078125 20
-231.932342529296875 277.716217041015625 20
-221.974456787109375 265.262115478515625 20
-211.822189331054688 252.9659423828125 20
-201.47802734375 240.83074951171875 20
-190.944534301757812 228.859542846679688 20
-180.22430419921875 217.055267333984375 20
-169.319976806640625 205.420822143554688 20
-158.2342529296875 193.9591064453125 20
-146.969879150390625 182.67291259765625 20
-9.42637538909912109 303.499725341796875 106.2965087890625
8.57105350494384766 303.684600830078125 112.1917724609375
21.5976676940917969 298.912017822265625 114.674049377441406
31.7995376586914062 291.1370849609375 115.112342834472656
39.5301017761230469 280.468231201171875 113.656105041503906
44.1277542114257812 265.800750732421875 109.703811645507812
38.7688446044921875 238.099761962890625 97.902984619140625
-50.7652778625488281 99.0276641845703125 20
-38.0230293273925781 89.4412384033203125 20
-25.1317768096923828 80.0561447143554688 20
-12.094700813293457 70.87469482421875 20
3.08195614814758301 64.881591796875 21.6971473693847656
20.0287113189697266 61.8243904113769531 24.8956451416015625
34.4355125427246094 55.0968208312988281 25.8671321868896484
46.7916297912597656 45.0879096984863281 24.8917713165283203
56.9720535278320312 31.2050685882568359 21.6990680694580078
69.0075149536132812 20.1858100891113281 20
82.9733810424804688 12.4904212951660156 20
97.0583953857421875 5.01534891128540039 20
192.978958129882812 160.914947509765625 106.281089782714844
213.294525146484375 172.96368408203125 115.629524230957031
228.0340576171875 174.420516967773438 119.226173400878906
240.665084838867188 171.702301025390625 120.518325805664062
251.772216796875 165.606674194335938 119.964653015136719
261.36285400390625 155.671340942382812 117.365547180175781
268.56689453125 139.098724365234375 111.339271545410156
213.605148315429688 -46.6441650390625 20
228.6029052734375 -52.0600700378417969 20
243.683868408203125 -57.2397308349609375 20
258.844329833984375 -62.1818695068359375 20
274.080535888671875 -66.8852691650390625 20
289.388763427734375 -71.3487701416015625 20
304.76519775390625 -75.5712661743164062 20
320.206085205078125 -79.5517196655273438 20
335.707550048828125 -83.2891464233398438 20
351.265838623046875 -86.7826309204101562 20
366.8770751953125 -90.0313034057617188 20
382.53741455078125 -93.03436279296875 20
398.24298095703125 -95.7910690307617188 20
413.989898681640625 -98.3007431030273438 20
397.322418212890625 -340.412567138671875 -94.4438552856445312
-369.065673828125 383.00396728515625 -48.2156562805175781
-390.12567138671875 351.355010986328125 -65.5981521606445312
-262.33734130859375 390 0.668132781982421875
-234.04766845703125 390 12.9024543762207031
-214.316726684570312 385.19110107421875 20
-206.049163818359375 373.00042724609375 20
-197.59112548828125 360.94110107421875 20
-188.944732666015625 349.016143798828125 20
-180.112075805664062 337.22845458984375 20
-171.095367431640625 325.5809326171875 20
-161.896820068359375 314.076507568359375 20
-152.518707275390625 302.717987060546875 20
-142.963333129882812 291.508148193359375 20
-133.233062744140625 280.449798583984375 20
-123.330299377441406 269.545654296875 20
-113.257484436035156 258.798370361328125 20
-103.017097473144531 248.210662841796875 20
-92.611663818359375 237.78509521484375 20
-9.42637538909912109 303.499725341796875 73.7966537475585938
8.5797119140625 303.693939208984375 80.185089111328125
21.60516357421875 298.920379638671875 82.8714981079101562
31.8067150115966797 291.145355224609375 83.3458251953125
39.53179931640625 280.470245361328125 81.7651290893554688
44.1374473571777344 265.8126220703125 77.4930801391601562
38.8249168395996094 238.170745849609375 64.7565536499023438
-3.7430882453918457 160.518157958984375 20
8.02750682830810547 151.662734985351562 20
19.9357452392578125 142.993301391601562 20
31.9786891937255859 134.511978149414062 20
44.1533660888671875 126.220863342285156 20
56.4567680358886719 118.122001647949219 20
68.8858718872070312 110.217391967773438 20
81.437591552734375 102.508979797363281 20
94.1088485717773438 94.9986801147460938 20
106.896507263183594 87.6883392333984375 20
119.797416687011719 80.5797576904296875 20
132.808395385742188 73.6746902465820312 20
192.978958129882812 160.914947509765625 73.7799606323242188
213.294525146484375 172.96368408203125 83.9001007080078125
228.032440185546875 174.417007446289062 87.7916641235351562
240.66070556640625 171.692428588867188 89.1869354248046875
251.767913818359375 165.596511840820312 88.587432861328125
261.367767333984375 155.683441162109375 85.7861099243164062
268.574127197265625 139.117294311523438 79.2658843994140625
240.46795654296875 25.9544391632080078 20
254.322052001953125 20.9515209197998047 20
268.253021240234375 16.1668338775634766 20
282.2574462890625 11.6015529632568359 20
296.331817626953125 7.25680780410766602 20
310.472747802734375 3.13366961479187012 20
324.676666259765625 -0.766844272613525391 20
338.940093994140625 -4.4437713623046875 20
353.259521484375 -7.89620494842529297 20
367.63140869140625 -11.1232929229736328 20
382.052215576171875 -14.1242380142211914 20
396.51837158203125 -16.8983020782470703 20
411.026336669921875 -19.4447975158691406 20
409.980804443359375 -124.792915344238281 -33.3385581970214844
-369.065673828125 383.00396728515625 -91.3864059448242188
-390.130645751953125 351.35211181640625 -110.140922546386719
-156.843978881835938 390 9.83633708953857422
-133.842819213867188 389.632781982421875 20
-125.654945373535156 378.70556640625 20
-117.296455383300781 367.9083251953125 20
-108.769393920898438 357.24371337890625 20
-100.07586669921875 346.71435546875 20
-91.2180328369140625 336.32281494140625 20
-82.1971893310546875 326.072509765625 20.0006465911865234
-73.0181961059570312 315.96356201171875 20
-63.6806831359863281 306.0008544921875 20
-38.6860389709472656 311.416717529296875 32
-29.2813434600830078 301.99383544921875 32
-9.42637538909912109 303.499725341796875 40.234100341796875
8.58865261077880859 303.703582763671875 47.1328773498535156
21.60235595703125 298.917236328125 50.0212440490722656
31.8015193939208984 291.139373779296875 50.5308761596679688
39.5239181518554688 280.460906982421875 48.8233222961425781
44.1412162780761719 265.8172607421875 44.2248992919921875
40.5288276672363281 240.327865600585938 32
51.0403671264648438 232.157989501953125 32
48.7505989074707031 206.686019897460938 20
59.7895431518554688 198.649444580078125 20
70.9533615112304688 190.787246704101562 20
82.2392959594726562 183.10137939453125 20
93.644561767578125 175.593734741210938 20
105.166343688964844 168.266159057617188 20
116.801803588867188 161.120452880859375 20
128.548065185546875 154.158401489257812 20
140.402236938476562 147.381698608398438 20
152.36138916015625 140.792037963867188 20
174.4591064453125 153.6666259765625 32
192.978958129882812 160.914947509765625 40.2160911560058594
213.294525146484375 172.96368408203125 51.1331710815429688
228.02960205078125 174.410858154296875 55.32745361328125
240.65618896484375 171.682235717773438 56.8301773071289062
251.763458251953125 165.586013793945312 56.1833305358886719
261.372833251953125 155.6959228515625 53.175140380859375
268.5667724609375 139.098373413085938 46.1228179931640625
271.76458740234375 110.535835266113281 32
284.286285400390625 106.014068603515625 32
289.9798583984375 81.0812149047851562 20
302.961944580078125 76.8491973876953125 20
316.008941650390625 72.8216171264648438 20
329.1175537109375 68.9994583129882812 20
342.28460693359375 65.3836822509765625 20
355.506805419921875 61.9751663208007812 20
368.78094482421875 58.7747573852539062 20
382.10369873046875 55.7832450866699219 20
395.4718017578125 53.0013694763183594 20
408.881927490234375 50.4298095703125 20
394.773956298828125 -116.50909423828125 -72.1420974731445312
-143.483657836914062 382.526336669921875 -23.3904590606689453
-89.217529296875 390 4.94196319580078125
-68.4550552368164062 390 14.5732812881469727
-53.2809486389160156 385.972442626953125 20
-45.0455245971679688 376.311126708984375 20
-36.65936279296875 366.78033447265625 20
-28.1245307922363281 357.3824462890625 20
-19.4431381225585938 348.119781494140625 20
-10.6173229217529297 338.994598388671875 20
-1.64926540851593018 330.009185791015625 20
10.3247823715209961 324.16424560546875 22.4634647369384766
24.0349292755126953 320.38092041015625 26.4068565368652344
35.4994583129882812 314.40289306640625 28.3705921173095703
45.2725372314453125 306.633056640625 28.7547874450683594
53.4216537475585938 296.96185302734375 27.5374870300292969
59.9238853454589844 285.165008544921875 24.6077232360839844
64.9197921752929688 271.206207275390625 20
74.9433059692382812 263.4156494140625 20
85.0879440307617188 255.783493041992188 20
95.3512191772460938 248.311614990234375 20
105.7305908203125 241.001876831054688 20
116.223495483398438 233.856063842773438 20
126.827354431152344 226.875946044921875 20
137.539535522460938 220.063262939453125 20
148.357406616210938 213.419662475585938 20
159.278305053710938 206.946807861328125 20
170.299514770507812 200.64630126953125 20
181.4183349609375 194.519668579101562 20
192.63201904296875 188.568450927734375 20
209.047317504882812 192.995193481445312 26.7760753631591797
223.88232421875 194.958236694335938 31.7065410614013672
235.291183471679688 190.122482299804688 32
246.567276000976562 185.017990112304688 32
257.92218017578125 180.091262817382812 32
269.353057861328125 175.343490600585938 32
279.03253173828125 166.073226928710938 29.0042018890380859
286.61358642578125 150.666305541992188 22.0430431365966797
297.360198974609375 143.128280639648438 20
309.366790771484375 139.004531860351562 20
321.436676025390625 135.06988525390625 20
333.566864013671875 131.3253173828125 20
345.75439453125 127.771728515625 20
357.996246337890625 124.410018920898438 20
370.28936767578125 121.241012573242188 20
382.630767822265625 118.265487670898438 20
397.39288330078125 126.466377258300781 26.6733188629150391
407.446136474609375 112.897773742675781 20
415 83.7468795776367188 3.84112286567687988
394.773956298828125 -116.50909423828125 -115.383148193359375
410.69134521484375 -120.097640991210938 -116
-143.483657836914062 382.526336669921875 -61.5664291381835938
-10.6846609115600586 390 7.19023895263671875
7.2294464111328125 390 15.6411542892456055
20.3481178283691406 386.005340576171875 20
28.5739421844482422 377.500518798828125 20
36.9323387145996094 369.125946044921875 20
45.4212493896484375 360.883697509765625 20
54.03857421875 352.775787353515625 20
62.7821884155273438 344.80426025390625 20
71.6499404907226562 336.971038818359375 20
80.6396331787109375 329.278076171875 20
89.749053955078125 321.727264404296875 20
98.9759521484375 314.320465087890625 20
108.31805419921875 307.05950927734375 20
117.773048400878906 299.946197509765625 20
127.338615417480469 292.982269287109375 20
137.01239013671875 286.169464111328125 20
146.791976928710938 279.509429931640625 20
156.674957275390625 273.003814697265625 20
166.658920288085938 266.654266357421875 20
176.741378784179688 260.462310791015625 20
186.919845581054688 254.429489135742188 20
197.19183349609375 248.557296752929688 20
207.554779052734375 242.84716796875 20
218.006134033203125 237.300506591796875 20
228.5433349609375 231.918701171875 20
239.16375732421875 226.703079223632812 20
249.86480712890625 221.6549072265625 20
260.643829345703125 216.77545166015625 20
271.498138427734375 212.065902709960938 20
282.42510986328125 207.527420043945312 20
293.4219970703125 203.161148071289062 20
304.48614501953125 198.968124389648438 20
315.614776611328125 194.949417114257812 20
326.805145263671875 191.10601806640625 20
338.05450439453125 187.4388427734375 20
349.360076904296875 183.948837280273438 20
360.719085693359375 180.636825561523438 20
372.128692626953125 177.503646850585938 20
383.58612060546875 174.550079345703125 20
395.088531494140625 171.776824951171875 20
406.633087158203125 169.184600830078125 20
415 150.6827392578125 9.54320049285888672
-143.483657836914062 382.526336669921875 -101.302658081054688
57.5208282470703125 390 6.04052591323852539
73.2506332397460938 390 13.517308235168457
87.8631515502929688 389.296142578125 20
96.0289535522460938 381.85137939453125 20
104.310691833496094 374.535797119140625 20
112.706314086914062 367.351226806640625 20
121.213752746582031 360.29937744140625 20
129.830902099609375 353.382049560546875 20
138.555648803710938 346.6009521484375 20
147.385818481445312 339.95770263671875 20
156.319259643554688 333.4539794921875 20
165.353759765625 327.09136962890625 20
174.487075805664062 320.8714599609375 20
183.716964721679688 314.7957763671875 20
193.0411376953125 308.865814208984375 20
202.457321166992188 303.08306884765625 20
211.963165283203125 297.44891357421875 20
221.55633544921875 291.964752197265625 20
231.234451293945312 286.631988525390625 20
240.995147705078125 281.451873779296875 20
250.836013793945312 276.42572021484375 20
260.754608154296875 271.55474853515625 20
270.74847412109375 266.840179443359375 20
280.815185546875 262.283172607421875 20
290.95220947265625 257.884857177734375 20
301.157073974609375 253.64630126953125 20
311.427276611328125 249.568557739257812 20
321.76025390625 245.652633666992188 20
332.1534423828125 241.899490356445312 20
342.60430908203125 238.310073852539062 20
353.11029052734375 234.885238647460938 20
363.66876220703125 231.6258544921875 20
374.277099609375 228.532730102539062 20
384.9327392578125 225.606597900390625 20
395.633026123046875 222.84820556640625 20
406.37530517578125 220.258224487304688 20
415 207.865509033203125 13.0386638641357422
409.9573974609375 125.459335327148438 -42.7124214172363281
117.756065368652344 390 1.83634841442108154
131.781997680664062 390 8.48816776275634766
145.441619873046875 390 14.8465614318847656
157.968780517578125 389.00390625 20
166.130538940429688 382.660369873046875 20
174.390914916992188 376.44580078125 20
182.747894287109375 370.36175537109375 20
191.19940185546875 364.40972900390625 20
199.74334716796875 358.5911865234375 20
208.377655029296875 352.907562255859375 20
217.10015869140625 347.360260009765625 20
225.908721923828125 341.95062255859375 20
234.801162719726562 336.6800537109375 20
243.775299072265625 331.549774169921875 20
252.82891845703125 326.561126708984375 20
261.95977783203125 321.71527099609375 20
271.165618896484375 317.013458251953125 20
280.44415283203125 312.456817626953125 20
289.79315185546875 308.04644775390625 20
299.21026611328125 303.78350830078125 20
308.69317626953125 299.66900634765625 20
318.239532470703125 295.703948974609375 20
327.847015380859375 291.88934326171875 20
337.513214111328125 288.226104736328125 20
347.235748291015625 284.71514892578125 20
357.012237548828125 281.35736083984375 20
366.84027099609375 278.153533935546875 20
376.7174072265625 275.104461669921875 20
386.6412353515625 272.2109375 20
396.609283447265625 269.4736328125 20
406.61907958984375 266.893218994140625 20
415 257.304840087890625 14.6337728500366211
399.22216796875 134.923385620117188 -74.9854736328125
409.9573974609375 125.459335327148438 -80.1485748291015625
154.09259033203125 384.09674072265625 -17.2962894439697266
159.96240234375 374.5943603515625 -20.3336448669433594
184.422454833984375 390 0.703353047370910645
196.810272216796875 390 6.38082265853881836
208.922500610351562 390 11.811528205871582
220.774002075195312 390 17.00616455078125
231.001068115234375 387.870819091796875 20
239.171600341796875 382.674560546875 20
247.422744750976562 377.607269287109375 20
255.752471923828125 372.67022705078125 20
264.158721923828125 367.8646240234375 20
272.639404296875 363.191619873046875 20
281.19244384765625 358.652435302734375 20
289.81573486328125 354.248138427734375 20
298.50714111328125 349.9798583984375 20
307.264495849609375 345.848602294921875 20
316.085693359375 341.85540771484375 20
324.968505859375 338.00128173828125 20
333.9107666015625 334.287139892578125 20
342.910247802734375 330.71392822265625 20
349.581878662109375 320.842529296875 14.653141975402832
361.072052001953125 323.993743896484375 20
370.229888916015625 320.848419189453125 20
379.436004638671875 317.847320556640625 20
388.6881103515625 314.9912109375 20
397.983917236328125 312.280792236328125 20
407.3211669921875 309.716705322265625 20
415 300.49383544921875 14.5382232666015625
399.22216796875 134.923385620117188 -113.829315185546875
410.798583984375 129.667022705078125 -116
154.09259033203125 384.09674072265625 -51.6736831665039062
159.96240234375 374.5943603515625 -54.9128913879394531
254.900100708007812 390 0.120361022651195526
265.8408203125 390 4.75285577774047852
276.583251953125 390 9.18028736114501953
287.13787841796875 390 13.4102649688720703
297.51470947265625 390 17.4499111175537109
307.01885986328125 388.59393310546875 20
315.16864013671875 384.59161376953125 20
323.38031005859375 380.717803955078125 20
331.65179443359375 376.97344970703125 20
339.9810791015625 373.359466552734375 20
348.366119384765625 369.876800537109375 20
356.8048095703125 366.5262451171875 20
365.29510498046875 363.308624267578125 20
373.834869384765625 360.22479248046875 20
382.422027587890625 357.275482177734375 20
391.054443359375 354.46142578125 20
400.088897705078125 352.979095458984375 21.0367774963378906
408.446563720703125 349.24176025390625 20
415 338.56494140625 12.8912248611450195
154.09259033203125 384.09674072265625 -87.8934326171875
159.96240234375 374.5943603515625 -91.345306396484375
337.42584228515625 390 1.09522759914398193
347.046417236328125 390 4.48402309417724609
356.539520263671875 390 7.70644617080688477
365.9122314453125 390 10.7672977447509766
375.17138671875 390 13.6710691452026367
384.323516845703125 390 16.4219627380371094
393.374908447265625 390 19.0239028930664062
401.825592041015625 388.4052734375 20
409.966644287109375 385.89215087890625 20
415 372.39276123046875 9.77802181243896484
156.008956909179688 386.5228271484375 -123.271255493164062
373.257781982421875 384.82843017578125 -23.2031269073486328
381.651702880859375 382.415252685546875 -22.6552391052246094
390.990936279296875 354.261260986328125 -45.0289993286132812
402.1226806640625 359.7557373046875 -36.9853401184082031
409.5062255859375 352.985137939453125 -41.1640357971191406
373.257781982421875 384.82843017578125 -57.1508827209472656
381.651702880859375 382.415252685546875 -56.5674476623535156
390.97833251953125 354.2215576171875 -80.43475341796875
402.1226806640625 359.7557373046875 -71.8273468017578125
408.5 349.43048095703125 -79.9852676391601562
373.257781982421875 384.82843017578125 -93.31005859375
381.651702880859375 382.415252685546875 -92.688751220703125
391.574005126953125 356.098724365234375 -116
402.1226806640625 359.7557373046875 -108.93902587890625
409.501861572265625 352.969696044921875 -113.694801330566406
