ply
format ascii 1.0
element vertex 519
property float x
property float y
property float z
end_header
-210.723709106445312 -94.6653060913085938 276.890350341796875
-192.586257934570312 -109.973495483398438 277.393951416015625
-187.555450439453125 -137.186843872070312 275.466094970703125
-25.3667068481445312 -234.785430908203125 280
-27.2739276885986328 -278.402679443359375 275.09893798828125
-7.69657087326049805 -291.995147705078125 275.022430419921875
31.9446182250976562 -272.556793212890625 280
-211.357406616210938 162.173583984375 280
-255.43450927734375 117.494598388671875 270.970855712890625
-240.716018676757812 101.05792236328125 271.799224853515625
-210.723709106445312 -94.6653060913085938 258.790008544921875
-192.586257934570312 -109.973495483398438 259.36767578125
-187.555450439453125 -137.186843872070312 257.1563720703125
-20.3123703002929688 -227.71636962890625 263.68109130859375
10.0954484939575195 -223.235107421875 266.888824462890625
28.8250541687011719 -235.022247314453125 266.95965576171875
38.0219078063964844 -262.52581787109375 264.144073486328125
-207.6380615234375 163.939910888671875 265.2366943359375
-192.250152587890625 149.487258911132812 266.51849365234375
-186.853439331054688 130.0677490234375 265.794586181640625
-210.723709106445312 -94.6653060913085938 240.583786010742188
-192.586257934570312 -109.973495483398438 241.235931396484375
-32.2331466674804688 6.75693893432617188 275.169097900390625
-28.9220962524414062 -15.6885614395141602 272.921478271484375
-15.7109870910644531 -28.945098876953125 272.91595458984375
6.79320192337036133 -32.1940155029296875 275.17828369140625
-20.3123703002929688 -227.71636962890625 246.10546875
10.0954484939575195 -223.235107421875 249.726776123046875
28.8250541687011719 -235.022247314453125 249.806747436523438
38.0219078063964844 -262.52581787109375 246.628128051757812
194.705169677734375 -142.855987548828125 277.5738525390625
207.7078857421875 -157.9937744140625 276.141357421875
-207.6380615234375 163.939910888671875 249.744247436523438
-192.250152587890625 149.487258911132812 251.173385620117188
-186.853439331054688 130.0677490234375 250.36627197265625
-210.723709106445312 -94.6653060913085938 222.257232666015625
-192.586257934570312 -109.973495483398438 222.984344482421875
1.58865261077880859 38.1010360717773438 269.663055419921875
20.2941551208496094 32.2963066101074219 271.49652099609375
32.2661781311035156 20.2632503509521484 271.488250732421875
38.071075439453125 1.55632162094116211 269.65460205078125
-20.3123703002929688 -227.71636962890625 228.4136962890625
10.0954484939575195 -223.235107421875 232.451309204101562
28.8250541687011719 -235.022247314453125 232.54046630859375
38.0219078063964844 -262.52581787109375 228.996429443359375
218.664703369140625 -92.4046707153320312 274.212249755859375
236.306060791015625 -93.6149368286132812 275.41412353515625
-23.6275482177734375 283.106353759765625 280
-32.769195556640625 263.33477783203125 276.570220947265625
-30.6355247497558594 247.999114990234375 275.625
-22.1178531646728516 235.631744384765625 276.09100341796875
-5.79199123382568359 227.585601806640625 278.3662109375
-210.723709106445312 -94.6653060913085938 203.79559326171875
-192.586257934570312 -109.973495483398438 204.598236083984375
1.58865261077880859 38.1010360717773438 256.12530517578125
20.2941551208496094 32.2963066101074219 258.14923095703125
32.2661781311035156 20.2632503509521484 258.14007568359375
38.071075439453125 1.55632162094116211 256.115966796875
-20.3123703002929688 -227.71636962890625 210.591506958007812
10.0954484939575195 -223.235107421875 215.048507690429688
28.8250541687011719 -235.022247314453125 215.146926879882812
38.0219078063964844 -262.52581787109375 211.234771728515625
218.664703369140625 -92.4046707153320312 261.147003173828125
236.306060791015625 -93.6149368286132812 262.473724365234375
9.66959285736083984 296.89849853515625 276.971405029296875
24.812957763671875 288.91375732421875 279.467559814453125
32.3876266479492188 277.929046630859375 280
37.6430625915527344 265.8909912109375 279.86480712890625
36.9211387634277344 250.5904541015625 278.07415771484375
-210.723709106445312 -94.6653060913085938 185.183685302734375
-192.586257934570312 -109.973495483398438 186.062454223632812
1.58865261077880859 38.1010360717773438 242.477386474609375
20.2941551208496094 32.2963066101074219 244.693283081054688
32.2661781311035156 20.2632503509521484 244.68328857421875
38.071075439453125 1.55632162094116211 242.467178344726562
-20.3123703002929688 -227.71636962890625 192.624252319335938
10.0954484939575195 -223.235107421875 197.504043579101562
28.8250541687011719 -235.022247314453125 197.611801147460938
38.0219078063964844 -262.52581787109375 193.328536987304688
218.664703369140625 -92.4046707153320312 247.975448608398438
236.306060791015625 -93.6149368286132812 249.428024291992188
9.66959285736083984 296.89849853515625 266.217041015625
24.812957763671875 288.91375732421875 268.931396484375
33.4061279296875 278.412750244140625 269.794586181640625
37.6430625915527344 265.8909912109375 269.363372802734375
36.9211387634277344 250.5904541015625 267.41619873046875
-210.723709106445312 -94.6653060913085938 166.405838012695312
-192.586257934570312 -109.973495483398438 167.361419677734375
1.58865261077880859 38.1010360717773438 228.707794189453125
20.2941551208496094 32.2963066101074219 231.117385864257812
32.2661781311035156 20.2632503509521484 231.10650634765625
38.071075439453125 1.55632162094116211 228.696670532226562
192.162979125976562 132.08367919921875 279.076629638671875
195.075637817382812 116.214218139648438 276.44012451171875
202.745620727539062 105.761070251464844 275.539825439453125
213.418594360351562 99.1831207275390625 275.79571533203125
227.106475830078125 97.1334152221679688 277.342864990234375
243.088516235351562 99.2238922119140625 280
38.0219078063964844 -262.52581787109375 175.262664794921875
218.664703369140625 -92.4046707153320312 234.686447143554688
236.306060791015625 -93.6149368286132812 236.2659912109375
9.66959285736083984 296.89849853515625 255.358367919921875
24.812957763671875 288.91375732421875 258.293060302734375
33.4061279296875 278.412750244140625 259.226318359375
37.6430625915527344 265.8909912109375 258.760101318359375
36.9211387634277344 250.5904541015625 256.654876708984375
-210.723709106445312 -94.6653060913085938 147.445877075195312
-192.586257934570312 -109.973495483398438 148.479019165039062
1.58865261077880859 38.1010360717773438 214.804641723632812
20.2941551208496094 32.2963066101074219 217.409820556640625
32.2661781311035156 20.2632503509521484 217.398056030273438
38.071075439453125 1.55632162094116211 214.792633056640625
195.075637817382812 116.214218139648438 266.411224365234375
202.745620727539062 105.761070251464844 265.4378662109375
213.418594360351562 99.1831207275390625 265.71453857421875
227.106475830078125 97.1334152221679688 267.387237548828125
38.0219078063964844 -262.52581787109375 157.021575927734375
218.664703369140625 -92.4046707153320312 221.268569946289062
236.306060791015625 -93.6149368286132812 222.976318359375
9.66959285736083984 296.89849853515625 244.38580322265625
24.812957763671875 288.91375732421875 247.543106079101562
33.4061279296875 278.412750244140625 248.547164916992188
37.6430625915527344 265.8909912109375 248.045578002929688
36.9211387634277344 250.5904541015625 245.780670166015625
-240.324951171875 -88.2008285522460938 122.757781982421875
-210.723709106445312 -94.6653060913085938 128.287033081054688
-192.586257934570312 -109.973495483398438 129.398544311523438
1.58865261077880859 38.1010360717773438 200.755645751953125
20.2941551208496094 32.2963066101074219 203.558456420898438
32.2661781311035156 20.2632503509521484 203.545806884765625
38.071075439453125 1.55632162094116211 200.742721557617188
38.0219078063964844 -262.52581787109375 138.589141845703125
218.664703369140625 -92.4046707153320312 207.709945678710938
236.306060791015625 -93.6149368286132812 209.5472412109375
9.66959285736083984 296.89849853515625 233.289352416992188
24.812957763671875 288.91375732421875 236.671798706054688
33.4061279296875 278.412750244140625 237.747451782226562
37.6430625915527344 265.8909912109375 237.210098266601562
36.9211387634277344 250.5904541015625 234.783676147460938
-240.324951171875 -88.2008285522460938 102.988349914550781
-205.24017333984375 -90.0772171020507812 111.157737731933594
-187.717254638671875 -105.685264587402344 112.14068603515625
1.58865261077880859 38.1010360717773438 186.548049926757812
20.2941551208496094 32.2963066101074219 189.55072021484375
32.2661781311035156 20.2632503509521484 189.537155151367188
38.071075439453125 1.55632162094116211 186.534194946289062
263.125579833984375 130.481277465820312 262.12725830078125
43.9463996887207031 -252.747039794921875 123.5400390625
218.664703369140625 -92.4046707153320312 193.99822998046875
236.306060791015625 -93.6149368286132812 195.966537475585938
9.66959285736083984 296.89849853515625 222.058639526367188
24.812957763671875 288.91375732421875 225.6689453125
33.4061279296875 278.412750244140625 226.817062377929688
37.6430625915527344 265.8909912109375 226.243499755859375
36.9211387634277344 250.5904541015625 223.65362548828125
-212.054946899414062 92.8940887451171875 125
-240.324951171875 -88.2008285522460938 82.979705810546875
-205.240341186523438 -90.077362060546875 91.6993637084960938
-187.71221923828125 -105.680831909179688 92.7508544921875
1.58865261077880859 38.1010360717773438 172.168533325195312
20.2941551208496094 32.2963066101074219 175.37347412109375
32.2661781311035156 20.2632503509521484 175.3590087890625
38.071075439453125 1.55632162094116211 172.15374755859375
263.125579833984375 130.481277465820312 252.839263916015625
43.9517631530761719 -252.738189697265625 104.919364929199219
218.664703369140625 -92.4046707153320312 180.12060546875
236.306060791015625 -93.6149368286132812 182.221511840820312
9.66959285736083984 296.89849853515625 210.682815551757812
24.812957763671875 288.91375732421875 214.523941040039062
33.4061279296875 278.412750244140625 215.745452880859375
37.6430625915527344 265.8909912109375 215.135223388671875
36.9211387634277344 250.5904541015625 212.379776000976562
-186.6490478515625 107.419502258300781 117.858390808105469
-240.324951171875 -88.2008285522460938 62.7125434875488281
-205.246109008789062 -90.0821762084960938 71.986968994140625
-187.714630126953125 -105.682960510253906 73.1072158813476562
1.58865261077880859 38.1010360717773438 157.603225708007812
20.2941551208496094 32.2963066101074219 161.0130615234375
32.2661781311035156 20.2632503509521484 160.997665405273438
38.071075439453125 1.55632162094116211 157.587493896484375
222.227325439453125 168.01556396484375 245.592605590820312
263.125579833984375 130.481277465820312 243.431243896484375
43.9481887817382812 -252.74407958984375 86.0523452758789062
218.664703369140625 -92.4046707153320312 166.063674926757812
236.306060791015625 -93.6149368286132812 168.29888916015625
9.66959285736083984 296.89849853515625 199.150558471679688
24.812957763671875 288.91375732421875 203.22564697265625
33.4061279296875 278.412750244140625 204.521575927734375
37.6430625915527344 265.8909912109375 203.874176025390625
36.9211387634277344 250.5904541015625 200.950881958007812
-186.638534545898438 107.425514221191406 100.676307678222656
-358.802093505859375 -20.3073196411132812 20
-345.345703125 -41.8961296081542969 20
-331.346710205078125 -63.1371231079101562 20
-316.814117431640625 -84.01666259765625 20
-301.75726318359375 -104.5213623046875 20
-240.324951171875 -88.2008285522460938 42.1666641235351562
-205.251953125 -90.087066650390625 52.0031623840332031
-187.719818115234375 -105.687530517578125 53.1919097900390625
1.58865261077880859 38.1010360717773438 142.837615966796875
20.2941551208496094 32.2963066101074219 146.455169677734375
32.2661781311035156 20.2632503509521484 146.438827514648438
38.071075439453125 1.55632162094116211 142.820938110351562
-163.655975341796875 -253.539321899414062 20
222.227325439453125 168.01556396484375 236.186859130859375
263.125579833984375 130.481277465820312 233.89385986328125
43.9431419372558594 -252.752410888671875 66.924530029296875
1.615447998046875 -371.707305908203125 20
23.8581027984619141 -384.052978515625 20
218.664703369140625 -92.4046707153320312 151.813430786132812
236.306060791015625 -93.6149368286132812 154.184814453125
9.66959285736083984 296.89849853515625 187.449966430664062
24.812957763671875 288.91375732421875 191.762466430664062
33.4061279296875 278.412750244140625 193.133880615234375
37.6430625915527344 265.8909912109375 192.448760986328125
36.9211387634277344 250.5904541015625 189.35516357421875
-186.62786865234375 107.431617736816406 83.2439727783203125
-311.526214599609375 8.33488750457763672 20
-298.810577392578125 -12.0654878616333008 20
-285.58221435546875 -32.1371917724609375 20
-271.849609375 -51.8673477172851562 20
-257.621612548828125 -71.2432861328125 20
-219.447097778320312 -71.6130142211914062 32
-204.735702514648438 -89.655120849609375 32
-187.72509765625 -105.692176818847656 32.9856109619140625
1.58865261077880859 38.1010360717773438 127.856483459472656
20.2941551208496094 32.2963066101074219 131.684783935546875
32.2661781311035156 20.2632503509521484 131.667495727539062
38.071075439453125 1.55632162094116211 127.838836669921875
-127.122627258300781 -212.058013916015625 20
222.227325439453125 168.01556396484375 226.643844604492188
235.210372924804688 166.728836059570312 229.530502319335938
259.849212646484375 145.470779418945312 228.507949829101562
263.125579833984375 130.481277465820312 224.217254638671875
43.9380226135253906 -252.7608642578125 47.5170860290527344
43.9229164123535156 -297.708740234375 32
50.0690650939941406 -335.387054443359375 20
189.811630249023438 -112.610946655273438 125
218.664703369140625 -92.4046707153320312 137.355194091796875
236.306060791015625 -93.6149368286132812 139.864715576171875
9.66959285736083984 296.89849853515625 175.568572998046875
24.812957763671875 288.91375732421875 180.12213134765625
33.4061279296875 278.412750244140625 181.570205688476562
37.6430625915527344 265.8909912109375 180.8468017578125
36.9211387634277344 250.5904541015625 177.580276489257812
-186.617034912109375 107.437812805175781 65.542816162109375
-268.56402587890625 34.3636283874511719 20
-256.52154541015625 15.0432510375976562 20
-243.993499755859375 -3.96585893630981445 20
-230.9879150390625 -22.6514987945556641 20
-217.513137817382812 -41.0016746520996094 20
-203.57781982421875 -59.004608154296875 20
-188.6341552734375 -76.1828842163085938 20.3069915771484375
-172.239700317382812 -92.0539016723632812 21.1957244873046875
7.79704427719116211 43.8546180725097656 116.2232666015625
24.9586925506591797 36.8441390991210938 119.441024780273438
36.8441123962402344 24.9586639404296875 119.441001892089844
43.8512687683105469 7.79343223571777344 116.221183776855469
-93.922760009765625 -174.361663818359375 20
222.227325439453125 168.01556396484375 216.953353881835938
235.210372924804688 166.728836059570312 220.001373291015625
245.3458251953125 162.260345458984375 221.130706787109375
253.531890869140625 155.286148071289062 220.80242919921875
259.849212646484375 145.470779418945312 218.921661376953125
263.125579833984375 130.481277465820312 214.391128540039062
49.0679359436035156 -244.293594360351562 32
64.98846435546875 -260.863739013671875 29.3765964508056641
73.888397216796875 -291.16168212890625 20
199.462326049804688 -93.5511627197265625 118.661865234375
221.024795532226562 -87.4350509643554688 125
236.306060791015625 -93.6149368286132812 125.323341369628906
9.66959285736083984 296.89849853515625 163.49322509765625
24.812957763671875 288.91375732421875 168.291793823242188
33.4061279296875 278.412750244140625 169.817779541015625
37.6430625915527344 265.8909912109375 169.055450439453125
36.9211387634277344 250.5904541015625 165.6131591796875
-186.613250732421875 107.439971923828125 47.5495681762695312
-206.292144775390625 72.0912094116210938 32
-217.895782470703125 39.8037223815917969 20
-206.007369995117188 21.7651634216308594 20
-193.665802001953125 4.03355836868286133 20
-180.879013061523438 -13.3797111511230469 20
-167.655197143554688 -30.4634685516357422 20
-154.002853393554688 -47.2067489624023438 20
-139.930740356445312 -63.5988044738769531 20
7.80172204971313477 43.8589515686035156 100.957740783691406
24.9624805450439453 36.8478317260742188 104.348136901855469
36.8478050231933594 24.9624519348144531 104.348121643066406
43.8471183776855469 7.7889552116394043 100.949989318847656
-63.5988044738769531 -139.930740356445312 20
222.227325439453125 168.01556396484375 207.104690551757812
235.210372924804688 166.728836059570312 210.316696166992188
245.3458251953125 162.260345458984375 211.506790161132812
253.531890869140625 155.286148071289062 211.160842895507812
259.849212646484375 145.470779418945312 209.17889404296875
263.125579833984375 130.481277465820312 204.404586791992188
58.1376609802246094 -229.323410034179688 20
76.7552108764648438 -240.282928466796875 20
95.6444091796875 -250.767288208007812 20
199.462326049804688 -93.5511627197265625 103.524703979492188
221.899429321289062 -85.593353271484375 111.112411499023438
238.920883178710938 -87.7285995483398438 113.414863586425781
9.66959285736083984 296.89849853515625 151.210067749023438
24.812957763671875 288.91375732421875 156.257843017578125
33.4061279296875 278.412750244140625 157.86309814453125
37.6430625915527344 265.8909912109375 157.061172485351562
36.9211387634277344 250.5904541015625 153.440109252929688
-181.51080322265625 110.357215881347656 32
-171.429031372070312 93.2131118774414062 31.9958038330078125
-182.452117919921875 62.5243492126464844 20
-171.150650024414062 45.3763809204101562 20
-159.418411254882812 28.5202121734619141 20
-147.262924194335938 11.9666624069213867 20
-134.692001342773438 -4.27364206314086914 20
-121.713691711425781 -20.1902790069580078 20
-108.336334228515625 -35.7730331420898438 20
7.79843330383300781 43.8559036254882812 85.4246597290039062
24.9663333892822266 36.8515892028808594 88.9957656860351562
36.8515625 24.9663047790527344 88.9957427978515625
43.8426361083984375 7.7841181755065918 85.4155120849609375
-35.7730331420898438 -108.336334228515625 20
222.227325439453125 168.01556396484375 197.086532592773438
235.210372924804688 166.728836059570312 200.465362548828125
245.3458251953125 162.260345458984375 201.717254638671875
253.531890869140625 155.286148071289062 201.353347778320312
259.849212646484375 145.470779418945312 199.268463134765625
263.125579833984375 130.481277465820312 194.246200561523438
79.9531097412109375 -193.3155517578125 20
97.6514739990234375 -203.733978271484375 20
115.60809326171875 -213.700714111328125 20
199.462326049804688 -93.5511627197265625 88.1270370483398438
221.899429321289062 -85.593353271484375 96.10882568359375
238.9229736328125 -87.7238998413085938 98.53326416015625
9.66959285736083984 296.89849853515625 138.704452514648438
24.812957763671875 288.91375732421875 144.005950927734375
33.4061279296875 278.412750244140625 145.69189453125
37.6430625915527344 265.8909912109375 144.849655151367188
36.9211387634277344 250.5904541015625 141.046585083007812
15.0930604934692383 222.762298583984375 125
-160.1334228515625 100.05657958984375 20
-149.7899169921875 83.4619598388671875 20
-139.029342651367188 67.1346893310546875 20
-127.858612060546875 51.0852622985839844 20
-116.284889221191406 35.3239669799804688 20
-104.315605163574219 19.8609237670898438 20
-91.95843505859375 4.70605754852294922 20
-60.9301223754882812 5.97849273681640625 32
7.79330158233642578 43.8511466979980469 69.6088409423828125
24.9702568054199219 36.8554153442382812 73.3655929565429688
36.8553886413574219 24.9702281951904297 73.365570068359375
43.83807373046875 7.77919387817382812 69.599365234375
5.97849273681640625 -60.9301223754882812 32
222.227325439453125 168.01556396484375 186.886917114257812
235.210372924804688 166.728836059570312 190.435592651367188
245.3458251953125 162.260345458984375 191.75042724609375
253.531890869140625 155.286148071289062 191.36822509765625
259.849212646484375 145.470779418945312 189.17852783203125
263.125579833984375 130.481277465820312 183.903823852539062
100.05657958984375 -160.1334228515625 20
116.90789794921875 -170.05322265625 20
134.005111694335938 -179.542953491210938 20
199.462326049804688 -93.5511627197265625 72.45050048828125
221.899429321289062 -85.593353271484375 80.83349609375
238.925094604492188 -87.7191162109375 83.3823776245117188
9.66959285736083984 296.89849853515625 125.960838317871094
24.812957763671875 288.91375732421875 131.520904541015625
33.4061279296875 278.412750244140625 133.2890625
37.6430625915527344 265.8909912109375 132.40576171875
36.9211387634277344 250.5904541015625 128.417205810546875
37.09674072265625 235.342544555664062 124.675323486328125
-129.435333251953125 118.655097961425781 20
-119.572822570800781 102.832176208496094 20
-109.312644958496094 87.2641754150390625 20
-98.6613845825195312 71.961090087890625 20
-87.6258697509765625 56.9327354431152344 20
-76.21319580078125 42.1887702941894531 20
-46.6065444946289062 42.6521644592285156 32
-34.8452606201171875 28.9519119262695312 32
7.78807163238525391 43.8463020324707031 53.4916954040527344
24.9704380035400391 36.8555908203125 57.4354820251464844
36.855072021484375 24.9699039459228516 57.4350967407226562
43.8334236145019531 7.77417516708374023 53.4819145202636719
28.9519119262695312 -34.8452606201171875 32
222.227325439453125 168.01556396484375 176.493209838867188
235.210372924804688 166.728836059570312 180.214950561523438
245.3458251953125 162.260345458984375 181.593917846679688
253.531890869140625 155.286148071289062 181.193069458007812
259.849212646484375 145.470779418945312 178.896591186523438
263.125579833984375 130.481277465820312 173.3646240234375
118.655097961425781 -129.435333251953125 20
134.7227783203125 -138.893829345703125 20
162.045196533203125 -127.480918884277344 32
199.462326049804688 -93.5511627197265625 56.4756317138671875
221.899429321289062 -85.593353271484375 65.2674713134765625
238.925689697265625 -87.7177886962890625 67.9414138793945312
18.416748046875 300.521697998046875 118.08331298828125
31.1884822845458984 291.745880126953125 122.5595703125
39.1569290161132812 281.143829345703125 124.081733703613281
43.6041984558105469 268.909332275390625 123.327095031738281
44.1970176696777344 254.509170532226562 120.005142211914062
37.0928001403808594 235.340286254882812 111.613822937011719
-100.9322509765625 135.923751831054688 20
-91.516357421875 120.817352294921875 20
-81.720794677734375 105.954322814941406 20
-71.5518646240234375 91.3442153930664062 20
-61.0160751342773438 76.9964065551757812 20
-50.1202011108398438 62.9200973510742188 20
-26.9127254486083984 59.1300582885742188 28.4328746795654297
-10.6255598068237305 50.2826499938964844 32
7.78273773193359375 43.8413581848144531 37.0523796081542969
24.96636962890625 36.8516273498535156 41.18408203125
36.85107421875 24.9658031463623047 41.18365478515625
43.8286781311035156 7.76905632019042969 37.0422897338867188
50.2826499938964844 -10.6255598068237305 32
222.227325439453125 168.01556396484375 165.8919677734375
235.210372924804688 166.728836059570312 169.790237426757812
245.3458251953125 162.260345458984375 171.234603881835938
253.531890869140625 155.286148071289062 170.814743041992188
259.849212646484375 145.470779418945312 168.409332275390625
263.125579833984375 130.481277465820312 162.614990234375
135.923751831054688 -100.9322509765625 20
151.263839721679688 -109.962432861328125 20
177.348983764648438 -99.06634521484375 32
199.462326049804688 -93.5511627197265625 40.1817779541015625
221.899429321289062 -85.593353271484375 49.390625
238.923477172851562 -87.722747802734375 52.1884651184082031
18.4225139617919922 300.524078369140625 105.053520202636719
31.1927947998046875 291.747802734375 109.735855102539062
39.1608963012695312 281.145721435546875 111.328208923339844
43.608245849609375 268.911376953125 110.538764953613281
44.2019615173339844 254.5118408203125 107.0638427734375
37.0843429565429688 235.33544921875 98.2758941650390625
-74.3781051635742188 152.011642456054688 20
-65.3782806396484375 137.572769165039062 20
-56.0155715942382812 123.36651611328125 20
-46.2959861755371094 109.402000427246094 20
-36.2257575988769531 95.6881942749023438 20
-25.8113536834716797 82.2338943481445312 20
-15.0594587326049805 69.0477371215820312 20
5.76579189300537109 64.7188186645507812 27.3460712432861328
22.9838657379150391 57.9288864135742188 32
34.3358116149902344 45.9866447448730469 32
45.9866447448730469 34.3358116149902344 32
57.9288864135742188 22.9838657379150391 32
64.7383041381835938 5.78792095184326172 27.3627567291259766
222.227325439453125 168.01556396484375 155.068893432617188
235.210372924804688 166.728836059570312 159.147384643554688
245.3458251953125 162.260345458984375 160.658523559570312
253.531890869140625 155.286148071289062 160.219253540039062
259.849212646484375 145.470779418945312 157.70263671875
263.125579833984375 130.481277465820312 151.640411376953125
152.011642456054688 -74.3781051635742188 20
166.673873901367188 -83.0092620849609375 20
190.2493896484375 -75.1141738891601562 30.3807315826416016
206.210723876953125 -80.2233352661132812 32
221.899429321289062 -85.593353271484375 33.1815605163574219
238.921234130859375 -87.727813720703125 36.1056098937988281
18.4284076690673828 300.526519775390625 91.7386627197265625
31.1971988677978516 291.749755859375 96.6315078735351562
39.164947509765625 281.14764404296875 98.2955703735351562
43.6123847961425781 268.913482666015625 97.4705657958984375
44.2070121765136719 254.514556884765625 93.8393783569335938
37.0757026672363281 235.330520629882812 84.64532470703125
-49.5620269775390625 167.046524047851562 20
-40.9510421752929688 153.231475830078125 20
-31.9928512573242188 139.639007568359375 20
-22.6931991577148438 126.27783203125 20
-13.0580577850341797 113.156532287597656 20
-3.09360957145690918 100.283531188964844 20
7.19374895095825195 87.667083740234375 20
17.7974147796630859 75.3152847290039062 20
28.7105827331542969 63.2360801696777344 20
39.9262466430664062 51.4372062683105469 20
51.4372062683105469 39.9262466430664062 20
63.2360801696777344 28.7105827331542969 20
192.662384033203125 151.03759765625 125
222.227325439453125 168.01556396484375 144.008758544921875
235.210372924804688 166.728836059570312 148.27142333984375
245.3458251953125 162.260345458984375 149.850784301757812
253.531890869140625 155.286148071289062 149.391693115234375
259.849212646484375 145.470779418945312 146.761444091796875
263.125579833984375 130.481277465820312 140.425460815429688
259.04681396484375 102.290641784667969 125
181.075271606445312 -57.8202743530273438 20
195.308731079101562 -65.7204818725585938 20
213.378799438476562 -66.0666351318359375 24.7667255401611328
231.506744384765625 -65.3633346557617188 29.8618755340576172
247.251617431640625 -68.9748382568359375 31.8088607788085938
18.4235248565673828 300.524505615234375 78.1118927001953125
31.2017059326171875 291.75177001953125 83.2272872924804688
39.1690940856933594 281.14959716796875 84.9646835327148438
43.617523193359375 268.91607666015625 84.1039352416992188
44.2064437866210938 254.514251708984375 80.308319091796875
37.066864013671875 235.325469970703125 70.7020416259765625
-26.302276611328125 181.138504028320312 20
-18.0557460784912109 167.908172607421875 20
-9.47670269012451172 154.8909912109375 20
-0.57065051794052124 142.095306396484375 20
8.6566925048828125 129.52935791015625 20
18.1994037628173828 117.201187133789062 20
28.0513572692871094 105.118721008300781 20
38.2062339782714844 93.2897109985351562 20
48.6575088500976562 81.72174072265625 20
59.3984794616699219 70.4222488403320312 20
70.4222488403320312 59.3984794616699219 20
81.72174072265625 48.6575088500976562 20
205.670181274414062 165.807144165039062 125
222.227325439453125 168.01556396484375 132.6953125
235.210372924804688 166.728836059570312 137.1463623046875
245.3458251953125 162.260345458984375 138.7955322265625
253.531890869140625 155.286148071289062 138.316131591796875
259.849212646484375 145.470779418945312 135.569656372070312
263.125579833984375 130.481277465820312 128.953659057617188
267.133514404296875 115.638275146484375 122.483711242675781
194.573501586914062 -34.2110023498535156 20
208.20452880859375 -41.7768440246582031 20
222.022857666015625 -48.9949455261230469 20
236.01959228515625 -55.8606719970703125 20
250.185775756835938 -62.3696250915527344 20
