ply
format ascii 1.0
element vertex 258
property float x
property float y
property float z
end_header
-257.84368896484375 131.804595947265625 276.034088134765625
-246.12774658203125 104.662818908691406 275.740753173828125
-210.85931396484375 -94.5982437133789062 263.637786865234375
-188.691986083984375 -118.184349060058594 263.8109130859375
10.5104789733886719 -223.342636108398438 271.504547119140625
34.0501174926757812 -243.082351684570312 270.988372802734375
-200.800247192382812 159.462966918945312 257.4163818359375
-187.372116088867188 135.817703247070312 257.670867919921875
-210.863510131835938 -94.6151504516601562 230.399063110351562
-24.35723876953125 29.3010692596435547 271.01513671875
16.4261932373046875 34.4753341674804688 277.186187744140625
33.4591789245605469 18.2782478332519531 277.302886962890625
35.2029457092285156 -14.5781764984130859 273.082000732421875
10.5369052886962891 -223.319351196289062 240.131149291992188
34.1159553527832031 -243.032379150390625 239.536636352539062
208.399505615234375 -95.6692123413085938 278.649993896484375
-32.6913223266601562 263.75408935546875 272.237213134765625
-28.3479061126708984 243.264663696289062 271.153411865234375
-11.3711013793945312 229.108169555664062 273.107391357421875
-210.862319946289062 -94.5934371948242188 196.789703369140625
-24.3729000091552734 29.3607082366943359 245.483749389648438
16.4372501373291016 34.4400863647460938 252.821975708007812
33.472686767578125 18.3071727752685547 252.943084716796875
35.1737937927246094 -14.5672063827514648 247.934829711914062
10.4459772109985352 -223.3695068359375 208.461593627929688
34.0888519287109375 -243.0982666015625 207.716766357421875
208.3902587890625 -95.706817626953125 254.466629028320312
24.4690036773681641 289.11383056640625 266.7613525390625
35.3724250793457031 274.225494384765625 267.614593505859375
37.8240013122558594 255.168716430664062 265.988067626953125
-210.76312255859375 -94.655731201171875 162.530471801757812
-24.0673370361328125 29.5205955505371094 219.512680053710938
16.4328880310058594 34.4257316589355469 228.026504516601562
33.4670066833496094 18.3992919921875 228.201904296875
35.1813774108886719 -14.5787343978881836 222.334136962890625
192.43975830078125 134.580169677734375 277.586700439453125
196.720809936523438 112.993087768554688 274.087738037109375
209.17120361328125 101.105369567871094 273.5142822265625
227.403594970703125 97.2173080444335938 275.379608154296875
251.222335815429688 103.127159118652344 279.958831787109375
208.29364013671875 -95.6378860473632812 230.04736328125
24.5481929779052734 289.22283935546875 247.17950439453125
35.3119125366210938 274.27178955078125 248.311676025390625
37.7937698364257812 255.112411499023438 246.3402099609375
-210.844528198242188 -94.6312255859375 127.68316650390625
-24.3575019836425781 29.2973098754882812 193.041412353515625
16.4286479949951172 34.414642333984375 202.844039916992188
33.4216804504394531 18.3428115844726562 203.048294067382812
35.2015113830566406 -14.6022138595581055 196.385406494140625
220.44818115234375 167.882354736328125 272.440032958984375
238.077163696289062 165.71453857421875 275.278411865234375
250.854034423828125 158.063095092773438 275.734405517578125
259.951385498046875 145.234405517578125 274.19671630859375
261.745635986328125 120.070060729980469 268.33807373046875
208.390274047851562 -95.697296142578125 205.202682495117188
24.5142650604248047 289.145660400390625 227.268157958984375
35.3555870056152344 274.1951904296875 228.44091796875
37.7570266723632812 255.15972900390625 226.319427490234375
-217.7322998046875 87.0752105712890625 124.981185913085938
-205.361648559570312 -90.1055374145507812 94.65582275390625
-24.3899421691894531 29.2307777404785156 165.958892822265625
16.4357566833496094 34.4274749755859375 177.113174438476562
33.4415702819824219 18.3103561401367188 177.315292358398438
35.2159767150878906 -14.6350173950195312 169.738372802734375
220.382461547851562 167.866744995117188 255.833099365234375
238.133743286132812 165.830093383789062 258.97900390625
250.783950805664062 158.0693359375 259.481353759765625
259.951568603515625 145.260208129882812 257.826934814453125
261.752899169921875 120.071022033691406 251.0538330078125
208.32318115234375 -95.7198638916015625 179.741226196289062
24.5162105560302734 289.134124755859375 206.910751342773438
35.3222732543945312 274.2489013671875 208.233016967773438
37.8407440185546875 255.196487426757812 205.785873413085938
-189.248931884765625 103.418418884277344 104.699913024902344
-368.728240966796875 -40.946624755859375 20.0539569854736328
-349.321136474609375 -70.9821701049804688 19.9996776580810547
-328.81671142578125 -100.340400695800781 20.0218505859375
-281.913726806640625 -109.003433227539062 32.0092315673828125
-205.361160278320312 -90.0663375854492188 58.5923385620117188
-24.3664894104003906 29.3068656921386719 138.33935546875
16.4502658843994141 34.404266357421875 150.736053466796875
33.4368782043457031 18.3607597351074219 151.080947875976562
35.1915283203125 -14.6433982849121094 142.477996826171875
220.37896728515625 167.82977294921875 238.853836059570312
238.118316650390625 165.865341186523438 242.368942260742188
250.795684814453125 158.012969970703125 242.867324829101562
259.9888916015625 145.344863891601562 240.96942138671875
261.7972412109375 120.100982666015625 233.437332153320312
-13.1323442459106445 -385.555084228515625 19.9708728790283203
208.30584716796875 -95.6908187866210938 153.734161376953125
24.4801521301269531 289.136749267578125 185.957229614257812
35.3996047973632812 274.216888427734375 187.412033081054688
37.8081626892089844 255.14764404296875 184.749588012695312
-189.25262451171875 103.438041687011719 72.7373123168945312
-283.7593994140625 11.8690214157104492 20.0381813049316406
-266.187103271484375 -15.1632261276245117 19.9942245483398438
-247.842910766601562 -41.6072807312011719 20.0075244903564453
-225.37860107421875 -65.010284423828125 21.5397987365722656
-188.685821533203125 -76.0887374877929688 30.4740161895751953
-8.21984291076660156 43.7661819458007812 118.923362731933594
18.6783943176269531 36.538238525390625 124.971267700195312
35.1052589416503906 20.0798816680908203 125.067344665527344
44.2579689025878906 -4.53106832504272461 120.184837341308594
220.43060302734375 167.90277099609375 221.318817138671875
238.008056640625 165.837799072265625 225.266159057617188
250.71807861328125 158.04107666015625 225.8233642578125
259.891326904296875 145.225067138671875 223.69207763671875
261.751708984375 120.016777038574219 215.4443359375
51.7453765869140625 -273.662353515625 31.9816379547119141
65.2477951049804688 -314.510498046875 20.0055198669433594
208.353515625 -95.65545654296875 127.055068969726562
24.5236186981201172 289.1383056640625 164.449966430664062
35.3570327758789062 274.30474853515625 166.014266967773438
37.7921218872070312 255.15802001953125 163.009262084960938
-189.320465087890625 103.503555297851562 39.7693862915039062
-212.074172973632812 56.5918922424316406 20.0597209930419922
-196.17669677734375 31.9299259185791016 20.0048656463623047
-179.386611938476562 7.96733951568603516 20.0244140625
-161.847015380859375 -15.4751186370849609 20.0128707885742188
-143.462814331054688 -38.22808837890625 19.9393100738525391
-8.26286125183105469 43.8279190063476562 90.6035537719726562
21.2761268615722656 39.067718505859375 98.94873046875
38.048675537109375 23.0619621276855469 99.2550048828125
44.22320556640625 -4.53499174118041992 91.9830169677734375
220.409027099609375 167.809417724609375 203.298019409179688
238.144866943359375 165.840927124023438 207.695892333984375
250.8607177734375 158.063858032226562 208.391159057617188
259.980987548828125 145.315231323242188 205.991317749023438
261.795166015625 120.054916381835938 196.872756958007812
79.4291763305664062 -225.83282470703125 19.9725322723388672
105.083839416503906 -239.979034423828125 19.9631233215332031
212.427139282226562 -87.24285888671875 103.874603271484375
24.4702568054199219 289.241912841796875 142.149032592773438
35.4126358032226562 274.21771240234375 143.956146240234375
37.7081069946289062 255.120407104492188 140.757598876953125
19.2069187164306641 223.354446411132812 124.979171752929688
-150.643600463867188 94.7853317260742188 19.9469451904296875
-136.130950927734375 72.357574462890625 19.9714260101318359
-120.837348937988281 50.4076957702636719 19.9939022064208984
-104.731361389160156 28.9975814819335938 20.0014152526855469
-87.9321441650390625 8.19454860687255859 19.9954357147216797
-8.25075721740722656 43.8218116760253906 61.3994407653808594
21.2399654388427734 39.087493896484375 70.5555038452148438
38.0200653076171875 23.157318115234375 70.8284530639648438
44.3045883178710938 -4.57947301864624023 62.9560317993164062
220.420867919921875 167.827407836914062 184.7244873046875
238.121490478515625 165.85247802734375 189.49237060546875
250.800033569335938 158.103164672851562 190.1888427734375
259.92840576171875 145.197479248046875 187.676605224609375
261.80572509765625 120.014755249023438 177.703704833984375
115.674156188964844 -163.300704956054688 19.9763298034667969
139.124832153320312 -176.270477294921875 19.9685516357421875
212.45941162109375 -87.2156906127929688 75.8305130004882812
30.9339313507080078 292.001556396484375 122.890823364257812
41.1184730529785156 277.000640869140625 124.455070495605469
44.5072975158691406 258.73162841796875 121.676483154296875
35.0019187927246094 232.399932861328125 110.267021179199219
-97.30511474609375 128.014236450195312 19.9760074615478516
-83.93560791015625 107.3670654296875 20.0142822265625
-69.957427978515625 87.2830581665039062 19.9783725738525391
-55.1165237426757812 67.6476364135742188 20.0443077087402344
-27.2108554840087891 59.0198287963867188 28.8921012878417969
-7.08625507354736328 44.8179168701171875 32.0321540832519531
21.2820663452148438 39.1152763366699219 41.1033515930175781
38.0637435913085938 23.0123500823974609 41.4832801818847656
44.2595443725585938 -4.59873104095458984 32.79931640625
220.439773559570312 167.879776000976562 165.521957397460938
238.12164306640625 165.8114013671875 170.783523559570312
250.7828369140625 158.012588500976562 171.524749755859375
259.906707763671875 145.239334106445312 168.689849853515625
261.756439208984375 120.049514770507812 157.8431396484375
147.221893310546875 -108.812942504882812 20.0019397735595703
179.1602783203125 -101.220405578613281 32.018035888671875
212.477325439453125 -87.333282470703125 46.9188117980957031
30.9376945495605469 291.9991455078125 99.3356399536132812
41.0862770080566406 277.038604736328125 101.038818359375
44.58404541015625 258.68988037109375 97.959228515625
34.999053955078125 232.467391967773438 85.6221237182617188
-50.457733154296875 157.2437744140625 20.0535125732421875
-38.1280441284179688 138.198440551757812 19.9781398773193359
-25.1744060516357422 119.612953186035156 20.0792808532714844
-11.598444938659668 101.563560485839844 20.0323219299316406
2.59022736549377441 83.9540939331054688 19.8743000030517578
17.4070529937744141 66.845184326171875 20.0286102294921875
36.4755668640136719 53.7181587219238281 22.9518299102783203
52.6280975341796875 38.0670356750488281 23.2216091156005859
65.2887191772460938 18.7233772277832031 20.0178928375244141
220.415664672851562 167.797470092773438 145.534378051757812
238.136001586914062 165.83538818359375 151.140594482421875
250.8101806640625 158.05908203125 152.0546875
259.98760986328125 145.282913208007812 148.987869262695312
261.805572509765625 120.045394897460938 137.236434936523438
174.875564575195312 -61.0728187561035156 20.0485019683837891
194.7353515625 -72.1056594848632812 19.9927330017089844
223.32269287109375 -65.0147323608398438 31.2942981719970703
30.9290332794189453 292.046783447265625 74.7501754760742188
41.102447509765625 277.048797607421875 76.5830230712890625
44.5766944885253906 258.68450927734375 73.252593994140625
34.96722412109375 232.420303344726562 59.9336891174316406
-8.91825580596923828 183.142929077148438 19.9945278167724609
2.48694586753845215 165.540740966796875 20.0281276702880859
14.4844646453857422 148.406570434570312 19.9879512786865234
27.0535449981689453 131.627151489257812 20.0341224670410156
40.1838836669921875 115.3826904296875 20.00439453125
53.90478515625 99.5807266235351562 20.0284194946289062
68.1165695190429688 84.2330093383789062 20.0567264556884766
82.9131088256835938 69.37103271484375 19.9753456115722656
197.3017578125 164.814834594726562 113.711738586425781
220.4166259765625 167.828948974609375 124.774787902832031
238.13616943359375 165.753250122070312 130.858688354492188
250.773345947265625 158.018966674804688 131.781509399414062
259.896087646484375 145.29095458984375 128.5240478515625
269.4766845703125 132.338226318359375 124.907402038574219
199.483261108398438 -18.6580047607421875 19.9847259521484375
217.710769653320312 -28.8591403961181641 20.0008602142333984
236.38018798828125 -38.381622314453125 20.0157032012939453
30.9500446319580078 292.07147216796875 49.0650177001953125
41.1159706115722656 277.05999755859375 51.0443916320800781
44.4932785034179688 258.70068359375 47.4280128479003906
34.9137153625488281 232.43450927734375 33.0906257629394531
43.322174072265625 215.59417724609375 31.8701229095458984
38.937347412109375 190.01995849609375 19.9968280792236328
50.0396232604980469 174.107894897460938 20.0433845520019531
61.6673507690429688 158.643051147460938 20.0875015258789062
73.8529281616210938 143.51611328125 20.0748920440673828
86.4847030639648438 128.889511108398438 19.9514923095703125
99.7584991455078125 114.674606323242188 19.9719734191894531
113.426490783691406 100.957443237304688 19.9722976684570312
197.330429077148438 164.823806762695312 91.1549224853515625
225.989242553710938 174.442398071289062 108.989234924316406
242.126144409179688 171.047698974609375 114.123382568359375
254.532516479492188 163.244125366210938 115.010612487792969
263.9876708984375 151.327407836914062 112.107383728027344
269.41656494140625 132.313796997070312 103.13311767578125
221.431488037109375 19.2777423858642578 19.9898777008056641
238.473480224609375 9.83701419830322266 20.0278396606445312
255.652801513671875 1.01593697071075439 19.9972076416015625
43.2044029235839844 297.4532470703125 31.9977283477783203
50.5926284790039062 281.602386474609375 32.0200538635253906
58.3833694458007812 266.08953857421875 32.0018882751464844
64.0896835327148438 249.228546142578125 29.5037174224853516
62.0217857360839844 227.280410766601562 19.9419155120849609
71.7691268920898438 212.106643676757812 20.0202121734619141
82.11962890625 197.423568725585938 20.1099967956542969
92.88946533203125 182.966415405273438 19.9837741851806641
104.247940063476562 168.9375 20.0248126983642578
116.04742431640625 155.32293701171875 19.9435710906982422
128.348892211914062 142.143539428710938 20.0165786743164062
141.021270751953125 129.391769409179688 20.0231113433837891
197.268386840820312 164.861465454101562 67.4259262084960938
226.033859252929688 174.488189697265625 86.6622085571289062
242.25775146484375 171.062484741210938 92.2009429931640625
254.650009155273438 163.30609130859375 93.1997833251953125
264.092254638671875 151.382110595703125 89.9818191528320312
269.502410888671875 132.279403686523438 80.382904052734375
241.315902709960938 53.5095291137695312 19.9672889709472656
257.08306884765625 44.8131256103515625 19.9834918975830078
273.12469482421875 36.5872726440429688 20.0315265655517578
