ply
format ascii 1.0
element vertex 455
property float x
property float y
property float z
end_header
-247.763153076171875 -100.056198120117188 280
-252.428878784179688 -148.17413330078125 272.42364501953125
-229.30438232421875 -162.627548217773438 272.940399169921875
-28.7338180541992188 -243.88287353515625 280
-19.8853950500488281 -286.212432861328125 273.595062255859375
7.08918571472167969 -292.12884521484375 274.7244873046875
-220.115631103515625 167.800827026367188 274.90374755859375
-199.059600830078125 157.945892333984375 277.037322998046875
-187.986038208007812 139.051010131835938 275.894317626953125
-246.514175415039062 -98.5528488159179688 225.58673095703125
-210.158966064453125 -94.90765380859375 231.635101318359375
-191.2171630859375 -112.355247497558594 231.122802734375
-31.5245246887207031 -9.44281005859375 272.5294189453125
-17.4403572082519531 -27.904571533203125 270.66259765625
5.29957246780395508 -32.5193214416503906 272.51715087890625
-20.6722469329833984 -227.96685791015625 229.318572998046875
10.2358722686767578 -223.279159545898438 233.514450073242188
31.3782634735107422 -238.312225341796875 232.405899047851562
211.826736450195312 -94.200775146484375 279.310791015625
232.800521850585938 -97.62957763671875 280
252.846511840820312 -103.992820739746094 279.85540771484375
-220.115631103515625 167.800827026367188 229.009902954101562
-199.059600830078125 157.945892333984375 231.578460693359375
-187.986038208007812 139.051010131835938 230.202423095703125
-246.514175415039062 -98.5528488159179688 169.637832641601562
-210.158966064453125 -94.90765380859375 176.919387817382812
-191.2171630859375 -112.355247497558594 176.302642822265625
-0.30462956428527832 38.1010360717773438 242.236358642578125
20.2182235717773438 32.3491592407226562 243.997894287109375
34.3821334838867188 16.4230136871337891 242.236648559570312
-20.6722469329833984 -227.96685791015625 174.13055419921875
10.2358722686767578 -223.279159545898438 179.181915283203125
31.3782634735107422 -238.312225341796875 177.84735107421875
211.826736450195312 -94.200775146484375 234.315444946289062
234.18170166015625 -92.9896240234375 236.514251708984375
252.846511840820312 -103.992820739746094 234.971099853515625
-220.115631103515625 167.800827026367188 181.935302734375
-199.059600830078125 157.945892333984375 184.950057983398438
-187.986038208007812 139.051010131835938 183.334991455078125
0.503768682479858398 298.101043701171875 264.967132568359375
18.0909023284912109 293.535308837890625 267.952423095703125
30.0725650787353516 283.395263671875 268.19720458984375
37.3240928649902344 267.853240966796875 265.941802978515625
-237.0047607421875 -87.1066970825195312 117.188858032226562
-206.038528442382812 -89.7152786254882812 122.996162414550781
-186.987289428710938 -106.772132873535156 122.397048950195312
-183.070587158203125 -144.925521850585938 112.990531921386719
-0.30462956428527832 38.1010360717773438 197.459381103515625
20.2182235717773438 32.3491592407226562 199.52691650390625
34.3821334838867188 16.4230136871337891 197.459716796875
-15.8076314926147461 -218.36260986328125 121.096153259277344
12.2499227523803711 -219.071151733398438 125
214.085906982421875 166.508041381835938 269.305694580078125
231.47760009765625 167.566085815429688 271.943084716796875
245.825851440429688 161.926239013671875 272.02386474609375
257.6795654296875 149.600021362304688 269.621002197265625
211.826736450195312 -94.200775146484375 188.162490844726562
234.18170166015625 -92.9896240234375 190.743270874023438
252.846511840820312 -103.992820739746094 188.932052612304688
-220.115631103515625 167.800827026367188 133.436019897460938
-199.059600830078125 157.945892333984375 136.91046142578125
-187.986038208007812 139.051010131835938 135.04913330078125
0.503768682479858398 298.101043701171875 229.128753662109375
18.0909023284912109 293.535308837890625 232.569244384765625
30.0725650787353516 283.395263671875 232.851348876953125
37.3240928649902344 267.853240966796875 230.252029418945312
-237.0047607421875 -87.1066970825195312 58.8168754577636719
-206.043991088867188 -89.7221603393554688 65.5063400268554688
-187 -106.788902282714844 64.8111724853515625
-183.026535034179688 -144.864593505859375 54.0071449279785156
-212.105010986328125 -233.1492919921875 20
-0.30462956428527832 38.1010360717773438 151.327239990234375
20.2182235717773438 32.3491592407226562 153.710052490234375
34.3821334838867188 16.4230136871337891 151.32763671875
-116.62750244140625 -292.822723388671875 20
-91.9514312744140625 -306.383514404296875 20
-15.8076314926147461 -218.36260986328125 63.3199653625488281
13.0370407104492188 -217.426589965820312 68.5165252685546875
214.085906982421875 166.508041381835938 234.128860473632812
231.47760009765625 167.566085815429688 237.168426513671875
245.825851440429688 161.926239013671875 237.261505126953125
257.6795654296875 149.600021362304688 234.49224853515625
88.412994384765625 -385.36370849609375 20
211.826736450195312 -94.200775146484375 140.612747192382812
234.18170166015625 -92.9896240234375 143.587051391601562
252.846511840820312 -103.992820739746094 141.499649047851562
262.753997802734375 -151.16107177734375 125
-405.699737548828125 169.30810546875 20
-391.320220947265625 149.144744873046875 20
-376.49188232421875 129.309112548828125 20
-361.222198486328125 109.811180114746094 20
-345.51885986328125 90.6607894897460938 20
-214.024688720703125 173.148147583007812 86.766265869140625
-194.33441162109375 162.285781860351562 89.9817428588867188
-182.765518188476562 144.066375732421875 88.2237091064453125
0.509791016578674316 298.107086181640625 192.041183471679688
18.0909023284912109 293.535308837890625 195.949066162109375
30.0725650787353516 283.395263671875 196.269805908203125
37.3240928649902344 267.853240966796875 193.314559936523438
-205.273635864257812 -48.9130630493164062 20
-186.048095703125 -64.5243148803710938 20
-166.477127075195312 -79.7002487182617188 20
-146.570556640625 -94.4332275390625 20
-26.9729938507080078 35.4473533630371094 96.1495819091796875
3.82065701484680176 44.3833122253417969 106.85101318359375
23.6052665710449219 37.7684249877929688 109.070823669433594
38.2170028686523438 22.8766231536865234 106.847702026367188
43.6583976745605469 -8.75484657287597656 96.1283187866210938
-20.65625 -173.129669189453125 20
1.30997943878173828 -184.567184448242188 20
23.527313232421875 -195.508941650390625 20
214.085906982421875 166.508041381835938 197.722244262695312
231.47760009765625 167.566085815429688 201.178024291992188
245.825851440429688 161.926239013671875 201.283859252929688
257.6795654296875 149.600021362304688 198.135406494140625
137.984909057617188 -242.597412109375 20
214.204605102539062 -86.822265625 94.7722320556640625
236.007568359375 -86.8558197021484375 97.5656204223632812
254.786895751953125 -96.8956375122070312 95.608978271484375
269.24853515625 -125.123283386230469 85.32122802734375
256.99505615234375 -276.574615478515625 20
281.212493896484375 -281.756134033203125 20
305.54010009765625 -286.3929443359375 20
329.965606689453125 -290.48272705078125 20
354.476715087890625 -294.0234375 20
379.061126708984375 -297.01324462890625 20
403.706451416015625 -299.45068359375 20
-396.921600341796875 390 17.3734493255615234
-372.85015869140625 377.07452392578125 25.3380565643310547
-372.847686767578125 352.62066650390625 20
-362.589599609375 333.148284912109375 20
-351.897186279296875 313.910980224609375 20
-340.77581787109375 294.918426513671875 20
-329.2310791015625 276.180206298828125 20
-317.268798828125 257.70574951171875 20
-304.89501953125 239.504348754882812 20
-292.115936279296875 221.585174560546875 20
-278.93798828125 203.957260131835938 20
-265.36785888671875 186.62945556640625 20
-232.626998901367188 185.3702392578125 32
-214.041030883789062 173.133804321289062 35.0023918151855469
-194.321395874023438 162.297714233398438 38.6398658752441406
-182.760498046875 144.071197509765625 36.6564254760742188
0.503768682479858398 298.101043701171875 153.468368530273438
18.0909023284912109 293.535308837890625 157.869857788085938
30.0725650787353516 283.395263671875 158.230758666992188
37.3240928649902344 267.853240966796875 154.9053955078125
-126.776412963867188 45.5712814331054688 20
-109.690689086914062 31.6975688934326172 20
-92.2979736328125 18.2107219696044922 20
-74.6070098876953125 5.11752939224243164 20
-26.9729938507080078 35.4473533630371094 45.5715179443359375
3.81459474563598633 44.3740806579589844 57.6077880859375
23.6066169738769531 37.7705841064453125 60.1122589111328125
38.2156715393066406 22.8743782043457031 57.6081886291503906
43.6321258544921875 -8.80140209197998047 45.5214385986328125
37.2929878234863281 -64.8199691772460938 20
56.8143653869628906 -74.9844894409179688 20
76.5589065551757812 -84.7084274291992188 20
214.085906982421875 166.508041381835938 159.865097045898438
231.47760009765625 167.566085815429688 163.753692626953125
245.825851440429688 161.926239013671875 163.872772216796875
257.6795654296875 149.600021362304688 160.330001831054688
186.320388793945312 -103.39202880859375 32
214.204605102539062 -86.822265625 44.0216712951660156
236.00262451171875 -86.8724441528320312 47.1564140319824219
254.781814575195312 -96.9142303466796875 44.9537811279296875
269.23809814453125 -125.165168762207031 33.36590576171875
289.4405517578125 -132.832656860351562 32
305.563629150390625 -161.35626220703125 20
327.183563232421875 -165.477005004882812 20
348.8905029296875 -169.111587524414062 20
370.67352294921875 -172.258209228515625 20
392.52166748046875 -174.915267944335938 20
414.4239501953125 -177.0814208984375 20
-366.46636962890625 380.167694091796875 -25.9911155700683594
-299.919708251953125 390 8.94385814666748047
-272.72015380859375 381.78753662109375 20
-263.1417236328125 364.554473876953125 20
-253.179046630859375 347.540679931640625 20
-242.837112426757812 330.75469970703125 20
-232.121139526367188 314.20501708984375 20
-221.036514282226562 297.89996337890625 20
-209.588836669921875 281.847686767578125 20
-197.783843994140625 266.05633544921875 20
-185.62750244140625 250.533859252929688 20
-173.125930786132812 235.288040161132812 20
-160.285415649414062 220.326568603515625 20
-147.1124267578125 205.656982421875 20
-21.5733566284179688 298.923858642578125 104.877151489257812
6.42519235610961914 304.05096435546875 117.751632690429688
22.6528663635253906 298.329742431640625 121.694618225097656
34.4339675903320312 288.18988037109375 122.02294921875
42.3589057922363281 273.64404296875 118.962005615234375
43.5396499633789062 250.574722290039062 109.77630615234375
-46.1696739196777344 111.74365234375 20
-30.5890274047851562 99.6619415283203125 20
-14.7412137985229492 87.9328689575195312 20
1.36578857898712158 76.562347412109375 20
17.7238674163818359 65.5560989379882812 20
34.4388465881347656 55.1021575927734375 20.1175689697265625
51.1601905822753906 44.6583938598632812 20
68.2215957641601562 34.7774658203125 20
85.5004119873046875 25.2818527221679688 20
102.987945556640625 16.17633056640625 20
195.14263916015625 163.052215576171875 114.231391906738281
217.410690307617188 173.87469482421875 124.721809387207031
231.729888916015625 168.160293579101562 125
245.974700927734375 162.299911499023438 125
260.347412109375 156.7606201171875 125
269.190093994140625 135.271316528320312 115.588829040527344
230.49285888671875 -36.2798690795898438 20
249.325210571289062 -42.1165390014648438 20
268.283782958984375 -47.5291824340820312 20
287.359039306640625 -52.5150680541992188 20
306.541351318359375 -57.071685791015625 20
325.82110595703125 -61.1967430114746094 20
345.18853759765625 -64.8881607055664062 20
364.633941650390625 -68.1440811157226562 20
384.147491455078125 -70.9628677368164062 20
403.7193603515625 -73.3430938720703125 20
400.41607666015625 -337.019073486328125 -123.534103393554688
-366.45281982421875 380.17425537109375 -83.5393447875976562
-182.499832153320312 390 17.4480342864990234
-169.568572998046875 377.0379638671875 20
-159.9095458984375 362.120635986328125 20
-149.918243408203125 347.42376708984375 20
-139.59967041015625 332.954803466796875 20
-128.959060668945312 318.721038818359375 20
-118.001739501953125 304.729583740234375 20
-106.733238220214844 290.98748779296875 20
-95.1592254638671875 277.501739501953125 20
-83.2855377197265625 264.279052734375 20
-21.5733566284179688 298.923858642578125 61.6402435302734375
6.42359495162963867 304.049346923828125 75.9221572875976562
22.6506481170654297 298.327392578125 80.2960357666015625
34.4436264038085938 288.20050048828125 80.6709442138671875
42.369903564453125 273.65667724609375 77.2765121459960938
43.5204582214355469 250.5516357421875 67.0572891235351562
7.70089435577392578 179.628707885742188 20
21.7447681427001953 168.738662719726562 20
36.0294609069824219 158.166473388671875 20
50.5477714538574219 147.917449951171875 20
65.2923965454101562 137.996795654296875 20
80.2559127807617188 128.409469604492188 20
95.4307861328125 119.160301208496094 20
110.809364318847656 110.253959655761719 20
126.3839111328125 101.694931030273438 20
142.146591186523438 93.487518310546875 20
195.14263916015625 163.052215576171875 72.0180816650390625
217.410690307617188 173.87469482421875 83.65643310546875
234.035446166992188 173.590408325195312 87.5405197143554688
248.241714477539062 167.990997314453125 87.6779251098632812
260.4267578125 156.97357177734375 84.1027908325195312
269.20086669921875 135.302322387695312 73.5439529418945312
257.07525634765625 46.2052536010742188 20
274.05010986328125 40.9442710876464844 20
291.13873291015625 36.0654983520507812 20
308.332550048828125 31.5713882446289062 20
325.622833251953125 27.4642047882080078 20
343.000946044921875 23.7460155487060547 20
360.4581298828125 20.4186954498291016 20
377.98553466796875 17.483917236328125 20
395.57440185546875 14.9431591033935547 20
413.215850830078125 12.7977008819580078 20
-117.893722534179688 390 3.75070977210998535
-88.7770233154296875 390 19.8657894134521484
-79.2672119140625 377.010467529296875 20
-69.63031005859375 364.11932373046875 20
-59.7065773010253906 351.447662353515625 20
-49.5010147094726562 339.001861572265625 20
-39.0187644958496094 326.7882080078125 20
-20.9867973327636719 321.497589111328125 26.6133213043212891
-4.31430530548095703 315.504669189453125 32
6.68380117416381836 304.310791015625 32
22.6399917602539062 298.316192626953125 36.5722274780273438
34.4378509521484375 288.19415283203125 36.99078369140625
42.3645439147949219 273.6505126953125 33.2430915832519531
53.1029853820800781 262.085784912109375 32
64.376220703125 251.048187255859375 31.0213680267333984
66.8578567504882812 228.284576416015625 20
79.7950973510742188 218.709640502929688 20
92.9439163208007812 209.427413940429688 20
106.297706604003906 200.442550659179688 20
119.8497314453125 191.759567260742188 20
133.593185424804688 183.38287353515625 20
147.5211181640625 175.316650390625 20
161.626556396484375 167.564987182617188 20
184.004806518554688 176.128463745117188 32
198.08282470703125 169.195220947265625 32
217.410690307617188 173.87469482421875 40.29296875
234.039749145507812 173.600555419921875 44.5889663696289062
248.2362060546875 167.977157592773438 44.7233314514160156
260.420654296875 156.957260131835938 40.7741622924804688
270.60894775390625 139.357589721679688 32
285.490234375 134.3768310546875 32
295.363616943359375 112.544845581054688 20
310.840301513671875 108.126274108886719 20
326.4122314453125 104.05609130859375 20
342.071563720703125 100.336326599121094 20
357.8104248046875 96.9688720703125 20
373.620880126953125 93.955413818359375 20
389.4949951171875 91.2974700927734375 20
405.424713134765625 88.9963760375976562 20
399.132659912109375 -114.948272705078125 -116
-140.028961181640625 375.312286376953125 -65.5189361572265625
-35.8081817626953125 390 3.27170133590698242
-11.6007280349731445 390 17.3043403625488281
0.532668113708496094 380.97711181640625 20
10.0604791641235352 369.875518798828125 20
19.8349895477294922 358.990509033203125 20
29.8512763977050781 348.32757568359375 20
40.1042976379394531 337.892059326171875 20
50.5888938903808594 327.689239501953125 20
61.2997779846191406 317.7242431640625 20
72.2315597534179688 308.0020751953125 20
83.3787384033203125 298.52764892578125 20
94.7357025146484375 289.30572509765625 20
106.296722412109375 280.3409423828125 20
118.055984497070312 271.637847900390625 20
130.007568359375 263.200775146484375 20
142.145462036132812 255.034011840820312 20
154.463531494140625 247.141647338867188 20
166.955596923828125 239.527679443359375 20
179.6153564453125 232.195907592773438 20
192.436447143554688 225.150054931640625 20
205.412399291992188 218.393646240234375 20
218.536697387695312 211.930099487304688 20
231.802703857421875 205.762664794921875 20
245.203765869140625 199.894439697265625 20
258.733123779296875 194.328399658203125 20
272.38397216796875 189.06732177734375 20
286.1494140625 184.113876342773438 20
300.022552490234375 179.470535278320312 20
313.996368408203125 175.139663696289062 20
328.0638427734375 171.1234130859375 20
342.217926025390625 167.423828125 20
356.451416015625 164.042770385742188 20
370.7572021484375 160.981918334960938 20
385.128082275390625 158.242843627929688 20
399.556793212890625 155.826919555664062 20
414.03607177734375 153.7353515625 20
-152.691162109375 387.699310302734375 -123.680442810058594
-137.204254150390625 377.186614990234375 -117.794036865234375
53.5976829528808594 390 10.339935302734375
71.5326385498046875 388.37091064453125 20
80.8766708374023438 378.860565185546875 20
90.4317474365234375 369.562286376953125 20
100.19305419921875 360.480743408203125 20
110.155670166015625 351.6204833984375 20
120.314590454101562 342.98602294921875 20
130.664688110351562 334.5816650390625 20
141.200759887695312 326.41168212890625 20
151.917495727539062 318.48016357421875 20
162.80950927734375 310.79107666015625 20
173.871307373046875 303.348358154296875 20
185.097305297851562 296.15570068359375 20
196.481887817382812 289.21673583984375 20
208.019287109375 282.53497314453125 20
219.703704833984375 276.11376953125 20
231.529266357421875 269.95635986328125 20
243.490020751953125 264.06585693359375 20
255.579925537109375 258.4451904296875 20
267.79290771484375 253.09722900390625 20
280.122802734375 248.024642944335938 20
292.56341552734375 243.22998046875 20
305.108489990234375 238.715682983398438 20
317.751678466796875 234.4840087890625 20
330.486663818359375 230.537078857421875 20
343.306976318359375 226.876907348632812 20
356.206207275390625 223.50531005859375 20
369.177825927734375 220.423995971679688 20
382.21533203125 217.634521484375 20
395.3121337890625 215.138275146484375 20
408.461639404296875 212.9365234375 20
127.045143127441406 390 9.55247783660888672
143.524795532226562 390 19.2440052032470703
153.360107421875 382.761749267578125 20
162.809402465820312 375.0888671875 20
172.428482055664062 367.62994384765625 20
182.212493896484375 360.38873291015625 20
192.156524658203125 353.368865966796875 20
202.255569458007812 346.57391357421875 20
212.504531860351562 340.00726318359375 20
222.898269653320312 333.672210693359375 20
233.4315185546875 327.571990966796875 20
244.0989990234375 321.70965576171875 20
254.895339965820312 316.088165283203125 20
265.815093994140625 310.7103271484375 20
276.852752685546875 305.578857421875 20
288.0028076171875 300.696319580078125 20
299.25958251953125 296.06524658203125 20
310.617431640625 291.6878662109375 20
322.070648193359375 287.56646728515625 20
333.61346435546875 283.703094482421875 20
345.240081787109375 280.099700927734375 20
356.944580078125 276.758087158203125 20
368.72113037109375 273.679931640625 20
380.56378173828125 270.866790771484375 20
392.466583251953125 268.320098876953125 20
404.42352294921875 266.041107177734375 20
415 254.868942260742188 11.7947139739990234
154.353408813476562 383.95733642578125 -23.7290439605712891
189.376434326171875 390 1.94057464599609375
203.61798095703125 390 10.1445398330688477
217.404769897460938 390 17.8437690734863281
227.897857666015625 385.623779296875 20
237.26416015625 379.622650146484375 20
246.76275634765625 373.83319091796875 20
256.388885498046875 368.258331298828125 20
266.137664794921875 362.90087890625 20
276.004180908203125 357.763519287109375 20
285.9835205078125 352.84881591796875 20
296.07061767578125 348.159271240234375 20
306.2603759765625 343.697265625 20
316.547698974609375 339.464996337890625 20
326.927398681640625 335.464630126953125 20
337.394256591796875 331.698150634765625 20
346.294677734375 323.05279541015625 14.7967462539672852
358.568267822265625 324.874420166015625 20
369.2647705078125 321.820587158203125 20
380.027099609375 319.007537841796875 20
390.849853515625 316.436676025390625 20
401.727569580078125 314.10931396484375 20
412.654754638671875 312.026580810546875 20
154.353408813476562 383.95733642578125 -72.934600830078125
268.656646728515625 390 1.34573507308959961
280.636566162109375 390 7.4576725959777832
292.332183837890625 390 13.1794376373291016
303.764892578125 390 18.5301418304443359
313.584747314453125 386.964874267578125 20
322.899383544921875 382.886077880859375 20
332.30322265625 379.017303466796875 20
341.791473388671875 375.360504150390625 20
351.359375 371.917510986328125 20
361.00213623046875 368.6900634765625 20
373.408355712890625 374.7281494140625 30
380.492767333984375 362.888275146484375 20
390.330780029296875 360.316802978515625 20
400.224029541015625 357.96673583984375 20
410.16754150390625 355.8392333984375 20
156.3323974609375 386.339385986328125 -123.46527099609375
367.86968994140625 390 0.613783657550811768
377.954345703125 390 4.07500743865966797
387.9051513671875 390 7.2421717643737793
397.734588623046875 390 10.1240377426147461
407.45458984375 390 12.7284612655639648
415 379.7325439453125 2.91836142539978027
376.424224853515625 384.8597412109375 -50.2429733276367188
384.563873291015625 377.77886962890625 -56.0542411804199219
400.668121337890625 359.9342041015625 -73.1025161743164062
409.49102783203125 352.494354248046875 -80
364.537567138671875 379.66046142578125 -116
376.424224853515625 384.8597412109375 -104.163894653320312
384.56268310546875 377.7745361328125 -110.550888061523438
