ply
format ascii 1.0
element vertex 233
property float x
property float y
property float z
end_header
-227.610885620117188 -91.9679718017578125 262.11248779296875
-194.10205078125 -107.671043395996094 263.85858154296875
-12.9699611663818359 -224.136993408203125 263.285003662109375
23.8398189544677734 -230.250823974609375 265.446380615234375
-210.213623046875 165.115798950195312 239.813827514648438
-189.4095458984375 143.607666015625 240.006698608398438
-227.610885620117188 -91.9679718017578125 185.603790283203125
-194.10205078125 -107.671043395996094 187.911468505859375
-11.2978172302246094 36.3876495361328125 249.000579833984375
20.2182235717773438 32.3491592407226562 252.751251220703125
37.658599853515625 5.78958511352539062 249.000518798828125
-12.9699611663818359 -224.136993408203125 187.153427124023438
23.8398189544677734 -230.250823974609375 190.009933471679688
216.691604614257812 -92.810150146484375 244.166366577148438
245.787216186523438 -98.046875 245.08087158203125
-210.213623046875 165.115798950195312 174.283157348632812
-189.4095458984375 143.607666015625 174.52459716796875
4.69069719314575195 297.820526123046875 258.8292236328125
25.8306159973144531 288.040130615234375 261.406341552734375
37.3240928649902344 267.853240966796875 258.893798828125
-222.384979248046875 -85.5615997314453125 109.246536254882812
-190.073043823242188 -102.402351379394531 111.576438903808594
-317.319000244140625 -341.39251708984375 20
-11.2978172302246094 36.3876495361328125 185.78369140625
20.2182235717773438 32.3491592407226562 190.47900390625
37.658599853515625 5.78958511352539062 185.783599853515625
-9.1072845458984375 -216.425216674804688 111.3087158203125
205.470382690429688 162.73675537109375 259.962158203125
231.47760009765625 167.566085815429688 265.0758056640625
250.90576171875 157.975631713867188 264.537384033203125
263.009552001953125 127.230926513671875 256.113616943359375
216.691604614257812 -92.810150146484375 179.731918334960938
245.787216186523438 -98.046875 180.876739501953125
-411.79547119140625 82.6264266967773438 20
-388.81231689453125 54.3402175903320312 20
-204.989334106445312 169.785964965820312 108.77032470703125
-184.43963623046875 148.339553833007812 109.002456665039062
4.69069719314575195 297.820526123046875 208.17486572265625
25.8306159973144531 288.040130615234375 211.293289184570312
37.3240928649902344 267.853240966796875 208.25299072265625
-215.01263427734375 -76.5239410400390625 32
-187.127532958984375 -98.5505218505859375 32
-160.485580444335938 -122.373390197753906 30.6346836090087891
-6.15024900436401367 44.0754318237304688 123.615043640136719
20.2182235717773438 32.3491592407226562 125.46868896484375
42.3123664855957031 13.7838306427001953 123.614181518554688
-51.9011077880859375 -220.490570068359375 20
-6.58503389358520508 -211.38958740234375 32
205.470382690429688 162.73675537109375 209.5457763671875
231.47760009765625 167.566085815429688 215.733444213867188
250.90576171875 157.975631713867188 215.081954956054688
263.009552001953125 127.230926513671875 204.888900756835938
218.877792358398438 -85.920654296875 115.454818725585938
247.600906372070312 -91.6397171020507812 116.604629516601562
269.24383544921875 -125.142097473144531 105.511924743652344
254.72064208984375 -333.946136474609375 20
290.45977783203125 -341.091033935546875 20
326.40570068359375 -347.109771728515625 20
362.52294921875 -351.996490478515625 20
399.537841796875 -347.046295166015625 23.6132526397705078
-384.5767822265625 376.28399658203125 20
-370.831085205078125 348.707855224609375 20
-356.2259521484375 321.577056884765625 20
-340.77581787109375 294.918426513671875 20
-324.495941162109375 268.75823974609375 20
-307.40240478515625 243.122344970703125 20
-289.512054443359375 218.0360107421875 20
-270.842529296875 193.524002075195312 20
-232.626998901367188 185.3702392578125 32
-204.987777709960938 169.787353515625 37.2327919006347656
-184.423507690429688 148.354904174804688 37.5172271728515625
4.69069719314575195 297.820526123046875 154.812973022460938
25.8306159973144531 288.040130615234375 158.501632690429688
37.3240928649902344 267.853240966796875 154.9053955078125
-119.979515075683594 39.9758148193359375 20
-95.8006591796875 20.8768138885498047 20
-56.7579689025878906 22.4830455780029297 32
-6.15024900436401367 44.0754318237304688 54.790924072265625
23.6066169738769531 37.7705841064453125 60.1122589111328125
42.3254966735839844 13.8063869476318359 54.80267333984375
45.0809478759765625 -41.1662788391113281 32
60.7457389831542969 -76.9646835327148438 20
205.470382690429688 162.73675537109375 156.4345703125
231.47760009765625 167.566085815429688 163.753692626953125
250.90576171875 157.975631713867188 162.983078002929688
263.009552001953125 127.230926513671875 150.926162719726562
218.877792358398438 -85.920654296875 45.1385536193847656
247.596603393554688 -91.6549453735351562 46.4908676147460938
269.23809814453125 -125.165168762207031 33.36590576171875
292.637969970703125 -158.651321411132812 20
322.852264404296875 -164.691680908203125 20
353.241363525390625 -169.780014038085938 20
383.775299072265625 -173.911285400390625 20
414.4239501953125 -177.0814208984375 20
-369.659210205078125 383.4295654296875 -49.4912452697753906
-235.3302001953125 389.128509521484375 20
-222.06158447265625 366.23394775390625 20
-208.080368041992188 343.767486572265625 20
-193.400360107421875 321.75128173828125 20
-178.036056518554688 300.20703125 20
-162.002609252929688 279.156036376953125 20
-145.315841674804688 258.6190185546875 20
-127.992233276367188 238.616302490234375 20
-110.048866271972656 219.1676025390625 20
10.1360235214233398 303.34136962890625 102.479568481445312
30.1936912536621094 292.750946044921875 106.014762878417969
42.3632354736328125 273.649017333984375 102.544815063476562
-32.4408454895019531 147.288238525390625 20
-11.6759471893310547 130.885940551757812 20
9.59391498565673828 115.14398193359375 20
31.347747802734375 100.077888488769531 20
53.5640830993652344 85.7025375366210938 20
76.2210006713867188 72.0321044921875 20
99.2961349487304688 59.0800933837890625 20
122.766716003417969 46.8592796325683594 20
209.655868530273438 171.792739868164062 105.633956909179688
234.032073974609375 173.582489013671875 112.196037292480469
253.359146118164062 164.299072265625 111.439178466796875
268.035308837890625 141.498031616210938 102.154609680175781
245.228240966796875 -2.88059449195861816 20
270.57305908203125 -10.4869956970214844 20
296.144256591796875 -17.2935447692871094 20
321.916656494140625 -23.2935218811035156 20
347.86480712890625 -28.4810085296630859 20
373.963104248046875 -32.8508834838867188 20
400.185760498046875 -36.3988380432128906 20
-136.326751708984375 390 3.20522928237915039
-102.068519592285156 384.744232177734375 20
-88.727935791015625 366.0377197265625 20
-74.8063507080078125 347.75946044921875 20
-60.3174972534179688 329.927490234375 20
-45.2756805419921875 312.5594482421875 20
-16.4533481597900391 308.2806396484375 32
10.1309537887573242 303.33624267578125 42.172271728515625
30.1838512420654297 292.740325927734375 46.2389755249023438
42.3669471740722656 273.653289794921875 42.2558670043945312
49.2478179931640625 247.429229736328125 32
55.7199020385742188 219.018890380859375 20
74.1881866455078125 205.35040283203125 20
93.076690673828125 192.268753051757812 20
112.366783142089844 179.786849975585938 20
132.0394287109375 167.917037963867188 20
152.0751953125 156.6710205078125 20
180.642974853515625 162.40838623046875 32
209.655868530273438 171.792739868164062 45.8099098205566406
234.040115356445312 173.601394653320312 53.3809165954589844
253.3634033203125 164.310028076171875 52.5034713745117188
268.02362060546875 141.464813232421875 41.7796401977539062
284.31610107421875 120.29974365234375 32
300.792236328125 96.2670135498046875 20
322.99530029296875 90.35699462890625 20
345.373077392578125 85.147308349609375 20
367.9034423828125 80.643096923828125 20
390.564178466796875 76.8488006591796875 20
413.3328857421875 73.7681732177734375 20
-145.678558349609375 383.97442626953125 -76.2126541137695312
-21.1178035736083984 390 2.57777023315429688
9.80984210968017578 388.760101318359375 20
22.9690799713134766 373.565765380859375 20
36.5990867614746094 358.79229736328125 20
50.6864166259765625 344.4542236328125 20
65.2171630859375 330.56573486328125 20
80.1769943237304688 317.1405029296875 20
95.5511322021484375 304.191802978515625 20
111.324417114257812 291.732421875 20
127.481269836425781 279.774627685546875 20
144.005767822265625 268.330230712890625 20
160.881576538085938 257.4105224609375 20
178.092056274414062 247.026290893554688 20
195.620223999023438 237.187774658203125 20
213.448776245117188 227.904693603515625 20
231.56011962890625 219.186187744140625 20
249.936386108398438 211.0408935546875 20
268.559417724609375 203.476821899414062 20
287.410858154296875 196.501434326171875 20
306.47210693359375 190.12164306640625 20
325.724365234375 184.343719482421875 20
345.148590087890625 179.173385620117188 20
364.725616455078125 174.61572265625 20
384.4361572265625 170.675247192382812 20
404.260772705078125 167.3558349609375 20
95.6090927124023438 390 8.56537628173828125
117.79205322265625 387.33074951171875 20
130.942901611328125 375.5289306640625 20
151.696060180664062 373.019073486328125 29.7717838287353516
158.32391357421875 353.1932373046875 20
172.527053833007812 342.681396484375 20
187.053359985351562 332.620880126953125 20
201.888519287109375 323.021636962890625 20
217.017868041992188 313.89306640625 20
232.426498413085938 305.2442626953125 20
248.09918212890625 297.083709716796875 20
264.02044677734375 289.419464111328125 20
280.17462158203125 282.259124755859375 20
296.54571533203125 275.609710693359375 20
313.11761474609375 269.477813720703125 20
329.873931884765625 263.869476318359375 20
346.79815673828125 258.79022216796875 20
363.873565673828125 254.245101928710938 20
381.08331298828125 250.238555908203125 20
398.410400390625 246.774566650390625 20
415 238.32061767578125 15.2220163345336914
158.070114135742188 380.83294677734375 -23.7773780822753906
186.470291137695312 390 0.236258789896965027
206.410552978515625 390 11.7237272262573242
224.189437866210938 388.08282470703125 20
237.26416015625 379.622650146484375 20
250.598175048828125 371.577362060546875 20
264.178314208984375 363.954864501953125 20
277.991180419921875 356.762664794921875 20
292.023162841796875 350.0079345703125 20
306.2603759765625 343.697265625 20
320.68878173828125 337.8369140625 20
335.294158935546875 332.432647705078125 20
348.098724365234375 321.302581787109375 13.7146682739257812
364.97796630859375 323.013336181640625 20
380.027099609375 319.007537841796875 20
395.19464111328125 315.4764404296875 20
410.465606689453125 312.42352294921875 20
158.062225341796875 380.82330322265625 -94.009490966796875
310.50665283203125 390 4.02834272384643555
325.91986083984375 390 10.8876304626464844
340.927154541015625 390 17.0897045135498047
354.7646484375 387.70550537109375 20
367.78680419921875 383.34698486328125 20
380.939422607421875 379.399658203125 20
394.20953369140625 375.867431640625 20
407.584075927734375 372.753753662109375 20
367.016571044921875 380.919708251953125 -48.3404922485351562
381.766387939453125 382.32110595703125 -41.3778877258300781
404.57427978515625 358.839263916015625 -62.9193534851074219
368.7525634765625 386.390533447265625 -116.886611938476562
381.97900390625 383.0721435546875 -116
