ply
format ascii 1.0
element vertex 751
property float x
property float y
property float z
end_header
-222.436309814453125 -91.9631729125976562 254.419952392578125
-202.628631591796875 -99.1494827270507812 255.855270385742188
-189.830169677734375 -115.256622314453125 254.788558959960938
-26.0107631683349609 -232.114517211914062 252.153091430664062
1.46771204471588135 -221.898971557617188 256.732879638671875
20.5675754547119141 -227.893997192382812 257.334869384765625
34.8381156921386719 -244.506576538085938 255.367080688476562
-227.070770263671875 168.086944580078125 258.45660400390625
-206.96484375 163.566253662109375 261.48187255859375
-194.341384887695312 152.638137817382812 261.9647216796875
-187.41845703125 136.292526245117188 260.4029541015625
-222.436309814453125 -91.9631729125976562 212.186492919921875
-202.628631591796875 -99.1494827270507812 213.868667602539062
-189.830169677734375 -115.256622314453125 212.618499755859375
-16.5303859710693359 34.3673896789550781 268.416534423828125
4.91803264617919922 37.7974128723144531 272.102630615234375
20.2182235717773438 32.3491592407226562 273.012176513671875
31.8186664581298828 20.9812126159667969 272.1019287109375
38.1394691467285156 0.207645252346992493 268.41845703125
-26.0107631683349609 -232.114517211914062 209.529800415039062
1.46771204471588135 -221.898971557617188 214.897216796875
20.5675754547119141 -227.893997192382812 215.60272216796875
34.8381156921386719 -244.506576538085938 213.2965087890625
208.9677734375 -95.4188308715820312 263.915802001953125
227.218582153320312 -91.9280776977539062 266.127166748046875
242.88458251953125 -96.3501739501953125 266.1800537109375
256.482269287109375 -108.479087829589844 264.160858154296875
-227.070770263671875 168.086944580078125 222.386611938476562
-206.96484375 163.566253662109375 225.863616943359375
-194.341384887695312 152.638137817382812 226.4185791015625
-187.41845703125 136.292526245117188 224.623580932617188
-31.3383121490478516 249.886520385742188 279.5872802734375
-24.3342914581298828 237.826217651367188 278.45587158203125
-13.3822250366210938 229.938995361328125 278.912750244140625
-0.879752218723297119 223.9130859375 280
-222.436309814453125 -91.9631729125976562 169.2069091796875
-202.628631591796875 -99.1494827270507812 171.140274047851562
-189.830169677734375 -115.256622314453125 169.70343017578125
-16.5303859710693359 34.3673896789550781 233.8338623046875
4.91803264617919922 37.7974128723144531 238.070404052734375
20.2182235717773438 32.3491592407226562 239.11578369140625
31.8186664581298828 20.9812126159667969 238.069595336914062
38.1394691467285156 0.207645252346992493 233.836044311523438
-26.0107631683349609 -232.114517211914062 166.153488159179688
1.46771204471588135 -221.898971557617188 172.322418212890625
20.5675754547119141 -227.893997192382812 173.133285522460938
34.8381156921386719 -244.506576538085938 170.482681274414062
208.9677734375 -95.4188308715820312 228.660995483398438
227.218582153320312 -91.9280776977539062 231.202606201171875
242.88458251953125 -96.3501739501953125 231.263397216796875
256.482269287109375 -108.479087829589844 228.942672729492188
-227.070770263671875 168.086944580078125 185.583206176757812
-206.96484375 163.566253662109375 189.521163940429688
-194.341384887695312 152.638137817382812 190.149703979492188
-187.41845703125 136.292526245117188 188.116744995117188
-2.00018501281738281 298.094146728515625 268.301910400390625
13.0459804534912109 295.839141845703125 271.2196044921875
23.9808521270751953 289.62811279296875 272.206298828125
32.1321487426757812 280.478271484375 271.80224609375
37.3240928649902344 267.853240966796875 269.83917236328125
35.757171630859375 246.842498779296875 264.29248046875
-222.436309814453125 -91.9631729125976562 125.353439331054688
-202.628631591796875 -99.1494827270507812 127.543113708496094
-189.830169677734375 -115.256622314453125 125.915786743164062
-181.095443725585938 -137.262252807617188 121.838333129882812
-16.5303859710693359 34.3673896789550781 198.548049926757812
4.91803264617919922 37.7974128723144531 203.346221923828125
20.2182235717773438 32.3491592407226562 204.530181884765625
31.8186664581298828 20.9812126159667969 203.345306396484375
38.1394691467285156 0.207645252346992493 198.550506591796875
-21.6914691925048828 -223.639389038085938 125
1.46771204471588135 -221.898971557617188 128.881973266601562
201.517593383789062 160.05938720703125 269.52313232421875
218.333816528320312 167.527328491210938 274.017852783203125
231.47760009765625 167.566085815429688 275.74053955078125
242.838607788085938 163.675338745117188 275.986724853515625
252.7598876953125 156.098312377929688 274.87286376953125
260.808502197265625 143.01885986328125 271.794403076171875
208.9677734375 -95.4188308715820312 192.689407348632812
227.218582153320312 -91.9280776977539062 195.567947387695312
242.88458251953125 -96.3501739501953125 195.636795043945312
256.482269287109375 -108.479087829589844 193.0084228515625
-227.070770263671875 168.086944580078125 147.931182861328125
-206.96484375 163.566253662109375 152.340713500976562
-194.341384887695312 152.638137817382812 153.044509887695312
-187.41845703125 136.292526245117188 150.768096923828125
-2.00018501281738281 298.094146728515625 240.55560302734375
13.0459804534912109 295.839141845703125 243.82269287109375
23.9808521270751953 289.62811279296875 244.92755126953125
32.1321487426757812 280.478271484375 244.475112915039062
37.3240928649902344 267.853240966796875 242.276962280273438
35.757171630859375 246.842498779296875 236.066024780273438
-217.669570922851562 -86.0778732299804688 83.2567672729492188
-198.675674438476562 -94.0909194946289062 85.2870101928710938
-185.486419677734375 -109.493392944335938 83.7560882568359375
-181.0750732421875 -137.234222412109375 76.5653915405273438
-253.398223876953125 -275.749053955078125 20
-16.5303859710693359 34.3673896789550781 162.448577880859375
4.91803264617919922 37.7974128723144531 167.821334838867188
20.2182235717773438 32.3491592407226562 169.1470947265625
31.8186664581298828 20.9812126159667969 167.8203125
38.1394691467285156 0.207645252346992493 162.451339721679688
-136.824630737304688 -348.6075439453125 20
-116.681678771972656 -359.546722412109375 20
-19.9141006469726562 -220.15191650390625 81.5235977172851562
4.49417781829833984 -215.695281982421875 86.962615966796875
201.51495361328125 160.053726196289062 241.9207763671875
218.333816528320312 167.527328491210938 246.956039428710938
231.47760009765625 167.566085815429688 248.885025024414062
242.838607788085938 163.675338745117188 249.160690307617188
252.7598876953125 156.098312377929688 247.913436889648438
260.808502197265625 143.01885986328125 244.466323852539062
208.9677734375 -95.4188308715820312 155.888351440429688
227.218582153320312 -91.9280776977539062 159.111602783203125
242.88458251953125 -96.3501739501953125 159.188705444335938
256.482269287109375 -108.479087829589844 156.245574951171875
-406.67913818359375 39.3510246276855469 20
-219.997177124023438 174.234756469726562 113.106636047363281
-201.928375244140625 168.100250244140625 116.9473876953125
-189.617721557617188 157.042190551757812 117.599266052246094
-181.974960327148438 141.548248291015625 115.522651672363281
-2.00018501281738281 298.094146728515625 212.091888427734375
13.0459804534912109 295.839141845703125 215.717422485351562
23.9808521270751953 289.62811279296875 216.9434814453125
32.1321487426757812 280.478271484375 216.44140625
37.3240928649902344 267.853240966796875 214.002090454101562
35.757171630859375 246.842498779296875 207.109756469726562
-217.68109130859375 -86.0920944213867188 37.5283317565917969
-198.685317993164062 -94.1032638549804688 39.7823867797851562
-185.496871948242188 -109.50726318359375 38.0828132629394531
-178.336013793945312 -133.464981079101562 32
-161.941497802734375 -145.161407470703125 32
-16.5303859710693359 34.3673896789550781 125.415718078613281
4.91803264617919922 37.7974128723144531 131.3779296875
20.2182235717773438 32.3491592407226562 132.84912109375
31.8186664581298828 20.9812126159667969 131.376800537109375
38.1394691467285156 0.207645252346992493 125.418785095214844
-73.8656845092773438 -235.051742553710938 20
-43.3529014587402344 -221.666595458984375 30.6770591735839844
-19.9141006469726562 -220.15191650390625 35.6124420166015625
4.49778127670288086 -215.687896728515625 41.6515083312988281
201.51495361328125 160.053726196289062 213.606842041015625
218.333816528320312 167.527328491210938 219.19451904296875
231.47760009765625 167.566085815429688 221.33514404296875
242.838607788085938 163.675338745117188 221.64105224609375
252.7598876953125 156.098312377929688 220.256942749023438
260.808502197265625 143.01885986328125 216.431655883789062
188.395126342773438 -104.690116882324219 111.921440124511719
211.514129638671875 -87.5844268798828125 121.47686767578125
229.136856079101562 -85.655792236328125 124.372879028320312
244.6929931640625 -90.0457229614257812 124.458274841308594
258.555511474609375 -100.744590759277344 121.779876708984375
269.242034912109375 -125.149337768554688 113.282600402832031
233.663818359375 -353.1343994140625 20
253.829360961914062 -357.60699462890625 20
274.06988525390625 -361.726959228515625 20
294.37921142578125 -365.4930419921875 20
314.751190185546875 -368.90411376953125 20
335.179595947265625 -371.9591064453125 20
355.658203125 -374.657135009765625 20
376.653411865234375 -372.50457763671875 21.8322219848632812
396.7410888671875 -378.97900390625 20
-411.0584716796875 230.826492309570312 20
-400.98626708984375 215.013015747070312 20
-390.639617919921875 199.377731323242188 20
-380.02166748046875 183.9254150390625 20
-369.135650634765625 168.660751342773438 20
-357.984893798828125 153.588394165039062 20
-346.572784423828125 138.71295166015625 20
-334.90277099609375 124.038932800292969 20
-322.978485107421875 109.570816040039062 20
-219.990341186523438 174.240692138671875 73.7618637084960938
-201.938858032226562 168.0908203125 77.9829025268554688
-189.62481689453125 157.03558349609375 78.703033447265625
-181.98583984375 141.537750244140625 76.4127960205078125
-2.00018501281738281 298.094146728515625 182.810333251953125
13.0459804534912109 295.839141845703125 186.804580688476562
23.9808521270751953 289.62811279296875 188.155349731445312
32.1321487426757812 280.478271484375 187.602203369140625
37.3240928649902344 267.853240966796875 184.914810180664062
35.757171630859375 246.842498779296875 177.321487426757812
-176.117950439453125 -34.7757492065429688 20
-161.446121215820312 -46.4484939575195312 20
-146.57281494140625 -57.8634033203125 20
-131.5025634765625 -69.016998291015625 20
-116.239944458007812 -79.9058837890625 20
-10.5471343994140625 43.2361259460449219 92.0990982055664062
8.72353172302246094 43.6561622619628906 97.0090103149414062
23.6072158813476562 37.77154541015625 98.365386962890625
35.4253501892089844 26.9824657440185547 97.0146713256835938
43.4911880493164062 9.47508335113525391 92.1039886474609375
-20.8889064788818359 -139.500274658203125 20
-4.41303205490112305 -148.447952270507812 20
12.21649169921875 -157.106719970703125 20
28.994598388671875 -165.47393798828125 20
201.51495361328125 160.053726196289062 184.479354858398438
218.333816528320312 167.527328491210938 190.63531494140625
231.47760009765625 167.566085815429688 192.99365234375
242.838607788085938 163.675338745117188 193.330673217773438
252.7598876953125 156.098312377929688 191.805801391601562
260.808502197265625 143.01885986328125 187.591461181640625
188.395126342773438 -104.690116882324219 72.4520797729492188
211.514129638671875 -87.5844268798828125 82.979339599609375
229.138809204101562 -85.6494216918945312 86.1728591918945312
244.692123413085938 -90.048736572265625 86.2625656127929688
258.5596923828125 -100.728927612304688 83.320404052734375
269.248046875 -125.125297546386719 73.9627456665039062
258.250823974609375 -246.68206787109375 20
276.55474853515625 -250.74176025390625 20
294.9267578125 -254.48138427734375 20
313.361236572265625 -257.899810791015625 20
331.852569580078125 -260.9959716796875 20
350.395111083984375 -263.768951416015625 20
368.98321533203125 -266.2178955078125 20
387.611236572265625 -268.342071533203125 20
406.27349853515625 -270.14080810546875 20
-388.965362548828125 385.5703125 20
-372.0224609375 374.78765869140625 25.2131118774414062
-373.96044921875 354.79833984375 20
-366.0574951171875 339.613433837890625 20
-357.890716552734375 324.568756103515625 20
-349.462646484375 309.668914794921875 20
-340.77581787109375 294.918426513671875 20
-331.8328857421875 280.321807861328125 20
-322.63653564453125 265.883453369140625 20
-313.18963623046875 251.607818603515625 20
-303.495025634765625 237.499221801757812 20
-293.5556640625 223.561981201171875 20
-283.374542236328125 209.800323486328125 20
-272.954833984375 196.218429565429688 20
-259.562744140625 185.036376953125 21.7233810424804688
-232.626998901367188 185.3702392578125 32
-219.994140625 174.237396240234375 33.1635360717773438
-201.94964599609375 168.081100463867188 37.7819442749023438
-189.63494873046875 157.026138305664062 38.5710029602050781
-181.9970703125 141.526901245117188 36.0617790222167969
-2.00018501281738281 298.094146728515625 152.600479125976562
13.0459804534912109 295.839141845703125 156.97515869140625
23.9808521270751953 289.62811279296875 158.454574584960938
32.1321487426757812 280.478271484375 157.8487548828125
37.3240928649902344 267.853240966796875 154.9053955078125
35.757171630859375 246.842498779296875 146.5888671875
-117.322761535644531 37.816314697265625 20
-103.926795959472656 27.15863037109375 20
-90.3468780517578125 16.7363605499267578 20
-76.587127685546875 6.55268239974975586 20
-48.5854530334472656 16.6954269409179688 32
-10.5471343994140625 43.2361259460449219 53.2497138977050781
8.73119926452636719 43.6679649353027344 58.6341476440429688
23.6066169738769531 37.7705841064453125 60.1122589111328125
35.4180870056152344 26.9703807830810547 58.6265602111816406
43.4934043884277344 9.47891521453857422 53.2572402954101562
34.4750556945800781 -39.6431770324707031 30.1607856750488281
39.4507026672363281 -65.9709625244140625 20
54.634124755859375 -73.8767623901367188 20
69.9532089233398438 -81.5163726806640625 20
201.51495361328125 160.053726196289062 154.428466796875
218.333816528320312 167.527328491210938 161.170745849609375
231.47760009765625 167.566085815429688 163.753692626953125
242.838607788085938 163.675338745117188 164.122802734375
252.7598876953125 156.098312377929688 162.452713012695312
260.808502197265625 143.01885986328125 157.83697509765625
188.573822021484375 -104.17132568359375 32
211.514129638671875 -87.5844268798828125 43.2613677978515625
229.141204833984375 -85.641571044921875 46.7630653381347656
244.6883544921875 -90.0618896484375 46.8506011962890625
258.56402587890625 -100.712776184082031 43.6431045532226562
269.23809814453125 -125.165168762207031 33.36590576171875
284.791473388671875 -131.771072387695312 32
295.98553466796875 -159.369308471679688 20
312.759918212890625 -162.783737182617188 20
329.591339111328125 -165.904891967773438 20
346.474639892578125 -168.7318115234375 20
363.40472412109375 -171.263656616210938 20
380.376434326171875 -173.499649047851562 20
397.384552001953125 -175.439102172851562 20
414.4239501953125 -177.0814208984375 20
-340.8250732421875 390 1.00433123111724854
-304.85723876953125 390 18.1760387420654297
-294.559906005859375 377.620758056640625 20
-287.067352294921875 363.818115234375 20
-279.335052490234375 350.1483154296875 20
-271.3653564453125 336.615570068359375 20
-263.16070556640625 323.223968505859375 20
-254.723587036132812 309.977569580078125 20
-246.05657958984375 296.880462646484375 20
-237.16229248046875 283.936614990234375 20
-228.043472290039062 271.14996337890625 20
-218.702880859375 258.524383544921875 20
-209.14337158203125 246.063766479492188 20
-199.367843627929688 233.771881103515625 20
-189.379287719726562 221.6524658203125 20
-179.18072509765625 209.709213256835938 20
-168.775299072265625 197.945785522460938 20
-158.1661376953125 186.365737915039062 20
-16.4111843109130859 301.401275634765625 117.09295654296875
2.85181307792663574 302.945220947265625 125
13.0459804534912109 295.839141845703125 126.10845947265625
23.9808521270751953 289.62811279296875 127.720993041992188
32.1321487426757812 280.478271484375 127.060653686523438
38.7356300354003906 269.476715087890625 125
44.41033935546875 257.152984619140625 121.967666625976562
-66.3595352172851562 100.738563537597656 20
-54.0694770812988281 90.9607315063476562 20
-41.6106491088867188 81.3988723754882812 20
-28.9868412017822266 72.0559158325195312 20
-16.1964130401611328 62.9425201416015625 20.0051002502441406
4.03593111038208008 64.8520278930664062 26.9584541320800781
20.4243640899658203 61.6701583862304688 30.3690280914306641
34.4276771545410156 55.0842819213867188 31.4204139709472656
46.4984092712402344 45.4072074890136719 30.3841056823730469
56.519866943359375 32.0365142822265625 26.952545166015625
63.6702156066894531 13.0146188735961914 20
77.4714584350585938 5.51947546005249023 20
91.4014053344726562 -1.73366129398345947 20
105.455818176269531 -8.74258232116699219 20
202.836257934570312 162.8865966796875 125
218.333816528320312 167.527328491210938 130.681564331054688
231.47760009765625 167.566085815429688 133.4969482421875
242.838607788085938 163.675338745117188 133.899276733398438
252.7598876953125 156.098312377929688 132.078887939453125
260.808502197265625 143.01885986328125 127.047821044921875
269.4959716796875 130.771926879882812 122.437065124511719
221.8507080078125 -55.781890869140625 20
236.828521728515625 -60.5059280395507812 20
251.886505126953125 -64.9678421020507812 20
267.02008056640625 -69.1662826538085938 20
282.224609375 -73.0999603271484375 20
297.495452880859375 -76.7676925659179688 20
312.8280029296875 -80.1683502197265625 20
328.217559814453125 -83.3008956909179688 20
343.659454345703125 -86.1643829345703125 20
359.14898681640625 -88.7579345703125 20
374.681396484375 -91.0807571411132812 20
390.251983642578125 -93.1321563720703125 20
405.855987548828125 -94.9114913940429688 20
400.153656005859375 -340.01513671875 -110.437454223632812
-365.491424560546875 377.9722900390625 -57.647064208984375
-391.5 345.863555908203125 -79.4239044189453125
-239.823501586914062 390 10.1501483917236328
-217.825180053710938 385.653350830078125 20
-210.484512329101562 373.188690185546875 20
-202.927413940429688 360.854034423828125 20
-195.156204223632812 348.65313720703125 20
-187.173233032226562 336.5897216796875 20
-178.98095703125 324.66748046875 20
-170.58184814453125 312.8900146484375 20
-161.978469848632812 301.260955810546875 20
-153.173446655273438 289.783782958984375 20
-144.169464111328125 278.4620361328125 20
-134.969268798828125 267.299163818359375 20
-125.575645446777344 256.298553466796875 20
-115.991470336914062 245.463577270507812 20
-106.219657897949219 234.797500610351562 20
-16.4111843109130859 301.401275634765625 84.281951904296875
4.24269723892211914 304.335845947265625 94.0055923461914062
17.8233413696289062 300.78533935546875 98.0524444580078125
28.3496932983398438 294.312225341796875 99.5301971435546875
36.5585441589355469 285.39337158203125 98.9344100952148438
42.3649444580078125 273.650970458984375 96.0699462890625
44.4224891662597656 257.167449951171875 89.5853195190429688
-21.6589851379394531 155.928543090820312 20
-10.3389368057250977 146.922439575195312 20
1.13656497001647949 138.115264892578125 20
12.7640256881713867 129.50970458984375 20
24.5399036407470703 121.108375549316406 20
36.4606094360351562 112.913856506347656 20
48.5225181579589844 104.928619384765625 20
60.7219467163085938 97.1551132202148438 20
73.0551834106445312 89.595703125 20
85.5184783935546875 82.252685546875 20
98.1080245971679688 75.1283035278320312 20
110.819984436035156 68.2247238159179688 20
123.650497436523438 61.5440483093261719 20
136.595657348632812 55.0883140563964844 20
206.34576416015625 170.410888671875 97.674774169921875
221.386917114257812 174.382949829101562 103.381187438964844
234.032943725585938 173.584518432617188 105.878196716308594
245.254409790039062 169.653076171875 106.262298583984375
255.280975341796875 162.66412353515625 104.625167846679688
263.926422119140625 151.582748413085938 100.367927551269531
269.50628662109375 130.801910400390625 90.1023635864257812
243.803955078125 11.7616329193115234 20
257.599639892578125 7.41044807434082031 20
271.469146728515625 3.30069351196289062 20
285.40826416015625 -0.566378772258758545 20
299.412750244140625 -4.1895909309387207 20
313.478363037109375 -7.56783866882324219 20
327.60076904296875 -10.7000942230224609 20
341.77569580078125 -13.5854015350341797 20
355.998809814453125 -16.2228832244873047 20
370.26580810546875 -18.6117362976074219 20
384.572296142578125 -20.7512321472167969 20
398.913970947265625 -22.6407184600830078 20
413.286407470703125 -24.2796211242675781 20
-365.493316650390625 377.97137451171875 -103.478233337402344
-387.161590576171875 348.073577880859375 -123.992027282714844
-182.499832153320312 390 1.01163697242736816
-156.27435302734375 390 15.0271387100219727
-142.363937377929688 382.929779052734375 20
-134.987228393554688 371.782501220703125 20
-127.417091369628906 360.765655517578125 20
-119.655838012695312 349.88262939453125 20
-111.705825805664062 339.136688232421875 20
-103.569488525390625 328.531158447265625 20
-95.249298095703125 318.0692138671875 20
-86.7477874755859375 307.75408935546875 20
-78.0675430297851562 297.588897705078125 20
-69.2112197875976562 287.576751708984375 20
-46.1769676208496094 290.777679443359375 32
-16.4111843109130859 301.401275634765625 50.1164321899414062
4.24782371520996094 304.340972900390625 60.6437530517578125
17.8279609680175781 300.79010009765625 65.0228118896484375
28.3574161529541016 294.320526123046875 66.6249465942382812
36.56634521484375 285.402008056640625 65.9804000854492188
42.3724479675292969 273.65960693359375 62.8803901672363281
44.4315452575683594 257.178253173828125 55.8644828796386719
30.0084381103515625 219.720245361328125 32
40.2072982788085938 211.60614013671875 32
39.021759033203125 188.380783081054688 20
49.7661972045898438 180.428756713867188 20
60.6477775573730469 172.665451049804688 20
71.6631927490234375 165.093246459960938 20
82.80908203125 157.714447021484375 20
94.0820465087890625 150.531280517578125 20
105.478660583496094 143.545944213867188 20
116.995452880859375 136.760589599609375 20
128.62890625 130.17724609375 20
140.37548828125 123.797943115234375 20
160.925827026367188 134.684005737304688 32
172.588836669921875 128.86767578125 32
206.34576416015625 170.410888671875 64.6099395751953125
221.386917114257812 174.382949829101562 70.7853240966796875
234.037368774414062 173.594924926757812 73.4946517944335938
245.25860595703125 169.6634521484375 73.9102401733398438
255.2822265625 162.667388916015625 72.13372802734375
263.931549072265625 151.59686279296875 67.533843994140625
269.5037841796875 130.794631958007812 56.4103736877441406
269.178741455078125 89.8322601318359375 32
276.00823974609375 67.6020889282226562 20
288.824462890625 63.804443359375 20
301.70501708984375 60.231048583984375 20
314.645965576171875 56.88299560546875 20
327.64337158203125 53.7612991333007812 20
340.693267822265625 50.8669166564941406 20
353.791717529296875 48.2007293701171875 20
366.9346923828125 45.7635459899902344 20
380.118194580078125 43.5561103820800781 20
393.338226318359375 41.5790939331054688 20
406.590728759765625 39.833099365234375 20
403.667694091796875 -115.712936401367188 -77.0683670043945312
-143.2635498046875 382.345703125 -18.8094940185546875
-107.97320556640625 390 3.9567110538482666
-85.6577911376953125 390 16.3984241485595703
-74.1054306030273438 382.97039794921875 20
-66.7398147583007812 373.014404296875 20
-59.2015762329101562 363.188446044921875 20
-51.4929924011230469 353.495574951171875 20
-43.6164207458496094 343.938690185546875 20
-35.5742568969726562 334.520751953125 20
-27.3689537048339844 325.24456787109375 20
-10.3693323135375977 324.16253662109375 27.9848556518554688
2.2830042839050293 319.450653076171875 32
10.7455511093139648 310.83746337890625 32
19.3571300506591797 302.373321533203125 32
28.3499107360839844 294.312469482421875 32.2328605651855469
37.016845703125 285.902252197265625 32
46.0596046447753906 277.900390625 32
55.2406349182128906 270.05755615234375 32
64.5571441650390625 262.37615966796875 32
63.0833816528320312 240.880523681640625 20
72.9079055786132812 233.340423583984375 20
82.8625259399414062 225.972946166992188 20
92.9442138671875 218.780319213867188 20
103.149887084960938 211.764739990234375 20
113.476455688476562 204.9283447265625 20
123.920753479003906 198.273208618164062 20
134.4796142578125 191.801361083984375 20
145.149810791015625 185.514785766601562 20
155.9281005859375 179.415390014648438 20
166.811203002929688 173.505020141601562 20
184.391372680664062 180.727035522460938 29.8256874084472656
196.656570434570312 178.20208740234375 32
207.554641723632812 173.002716064453125 32
221.386917114257812 174.382949829101562 36.73077392578125
234.039077758789062 173.598968505859375 39.6580276489257812
245.263107299804688 169.674575805664062 40.1117401123046875
255.277786254882812 162.655807495117188 38.1777763366699219
263.9288330078125 151.589324951171875 33.2158851623535156
274.69573974609375 145.868606567382812 32
286.146240234375 142.0361328125 32
292.47369384765625 121.440078735351562 20
304.347808837890625 117.921592712402344 20
316.281524658203125 114.610877990722656 20
328.27117919921875 111.508934020996094 20
340.31317138671875 108.616714477539062 20
352.403778076171875 105.935096740722656 20
364.53936767578125 103.464897155761719 20
376.716217041015625 101.206871032714844 20
388.93060302734375 99.1616973876953125 20
401.178863525390625 97.3300094604492188 20
413.457183837890625 95.7123641967773438 20
403.99029541015625 -112.646499633789062 -120.768119812011719
-143.2635498046875 382.345703125 -58.7921333312988281
-44.1947479248046875 390 3.57433366775512695
-24.8777103424072266 390 14.741276741027832
-12.0326204299926758 385.443817138671875 20
-4.71963214874267578 376.57073974609375 20
2.74709844589233398 367.82666015625 20
10.3652973175048828 359.2142333984375 20
18.1326427459716797 350.736053466796875 20
26.0467720031738281 342.394744873046875 20
34.1052703857421875 334.19281005859375 20
42.3056831359863281 326.132781982421875 20
50.6455154418945312 318.217071533203125 20
59.1222267150878906 310.4481201171875 20
67.7332305908203125 302.82830810546875 20
76.4759140014648438 295.359954833984375 20
85.3476028442382812 288.0452880859375 20
94.3455963134765625 280.886566162109375 20
103.467155456542969 273.885986328125 20
112.709503173828125 267.045684814453125 20
122.06982421875 260.367706298828125 20
131.545272827148438 253.854095458984375 20
141.132949829101562 247.506851196289062 20
150.829940795898438 241.327911376953125 20
160.63330078125 235.319137573242188 20
170.540023803710938 229.482376098632812 20
180.547103881835938 223.81939697265625 20
190.6514892578125 218.331924438476562 20
200.850112915039062 213.021652221679688 20
211.139862060546875 207.890151977539062 20
221.517608642578125 202.939041137695312 20
231.98016357421875 198.169784545898438 20
242.524368286132812 193.583847045898438 20
253.147003173828125 189.182647705078125 20
263.8448486328125 184.967498779296875 20
274.614593505859375 180.939697265625 20
285.453033447265625 177.1004638671875 20
296.356781005859375 173.450973510742188 20
307.322601318359375 169.992340087890625 20
318.34710693359375 166.725601196289062 20
329.426910400390625 163.651779174804688 20
340.5587158203125 160.771774291992188 20
351.73907470703125 158.086502075195312 20
362.964569091796875 155.596755981445312 20
374.231842041015625 153.303314208984375 20
385.53741455078125 151.20684814453125 20
396.877838134765625 149.308013916015625 20
408.24969482421875 147.607391357421875 20
-143.2635498046875 382.345703125 -100.862419128417969
11.2877836227416992 390 0.231368288397789001
28.2594451904296875 390 10.3430929183959961
44.5628242492675781 390 19.9104156494140625
51.8713111877441406 382.19195556640625 20
59.2313194274902344 374.434661865234375 20
66.7255935668945312 366.8070068359375 20
74.351837158203125 359.311309814453125 20
82.1077499389648438 351.9498291015625 20
89.9909515380859375 344.724853515625 20
97.9990386962890625 337.6385498046875 20
106.129585266113281 330.693084716796875 20
114.380111694335938 323.89056396484375 20
122.748100280761719 317.23309326171875 20
131.231002807617188 310.72265625 20
139.82623291015625 304.36126708984375 20
148.531173706054688 298.150848388671875 20
157.343185424804688 292.09332275390625 20
166.259567260742188 286.19049072265625 20
175.277603149414062 280.444183349609375 20
184.394561767578125 274.856109619140625 20
193.607650756835938 269.428009033203125 20
202.914077758789062 264.16156005859375 20
212.311004638671875 259.05828857421875 20
221.795547485351562 254.11981201171875 20
231.364837646484375 249.347625732421875 20
241.015960693359375 244.7431640625 20
250.745986938476562 240.307830810546875 20
260.551910400390625 236.042999267578125 20
270.4307861328125 231.949935913085938 20
280.379608154296875 228.029922485351562 20
290.395294189453125 224.284133911132812 20
300.474853515625 220.713714599609375 20
310.61517333984375 217.319747924804688 20
320.813201904296875 214.103271484375 20
331.0657958984375 211.065261840820312 20
341.369842529296875 208.206649780273438 20
351.72222900390625 205.528305053710938 20
362.119781494140625 203.031051635742188 20
372.559326171875 200.715621948242188 20
383.037689208984375 198.582748413085938 20
393.551666259765625 196.633071899414062 20
404.09808349609375 194.8671875 20
414.673736572265625 193.28564453125 20
75.3527374267578125 390 3.35615754127502441
89.9229507446289062 390 12.1010580062866211
103.663063049316406 389.65826416015625 20
110.884880065917969 382.8037109375 20
118.2252197265625 376.076263427734375 20
125.681861877441406 369.477935791015625 20
133.252517700195312 363.0107421875 20
140.934890747070312 356.67669677734375 20
148.726638793945312 350.4776611328125 20
156.625381469726562 344.415557861328125 20
164.62872314453125 338.492218017578125 20
172.734222412109375 332.70947265625 20
180.939407348632812 327.069091796875 20
189.241790771484375 321.572723388671875 20
197.638824462890625 316.22210693359375 20
206.127960205078125 311.01885986328125 20
214.706619262695312 305.964569091796875 20
223.372177124023438 301.060760498046875 20
232.121994018554688 296.308929443359375 20
240.953414916992188 291.710540771484375 20
249.863754272460938 287.2669677734375 20
258.85028076171875 282.979583740234375 20
267.910247802734375 278.84967041015625 20
277.040924072265625 274.878509521484375 20
286.239532470703125 271.06732177734375 20
295.50323486328125 267.417236328125 20
304.8292236328125 263.929412841796875 20
314.21466064453125 260.6048583984375 20
323.656707763671875 257.444610595703125 20
333.1524658203125 254.449615478515625 20
342.69903564453125 251.620819091796875 20
352.293548583984375 248.959060668945312 20
361.933013916015625 246.46514892578125 20
371.61456298828125 244.139862060546875 20
381.335205078125 241.98388671875 20
391.092010498046875 239.997879028320312 20
400.881988525390625 238.182464599609375 20
410.7021484375 236.538192749023438 20
406.168853759765625 132.811508178710938 -66.880767822265625
130.76458740234375 390 1.86176192760467529
143.524795532226562 390 9.49639225006103516
155.90350341796875 390 16.7555561065673828
165.37322998046875 386.8497314453125 20
172.634658813476562 381.072601318359375 20
179.995803833007812 375.423095703125 20
187.454437255859375 369.902923583984375 20
195.008270263671875 364.513763427734375 20
202.654998779296875 359.257232666015625 20
210.392303466796875 354.134979248046875 20
218.21783447265625 349.148529052734375 20
226.129196166992188 344.2994384765625 20
234.123977661132812 339.589141845703125 20
242.199752807617188 335.019073486328125 20
250.354049682617188 330.590667724609375 20
258.584381103515625 326.30523681640625 20
266.888275146484375 322.164093017578125 20
275.26318359375 318.16851806640625 20
283.706512451171875 314.3197021484375 20
292.21575927734375 310.61883544921875 20
300.78826904296875 307.0670166015625 20
309.421478271484375 303.665374755859375 20
318.11273193359375 300.4149169921875 20
326.859405517578125 297.316650390625 20
335.6588134765625 294.371490478515625 20
344.508270263671875 291.580352783203125 20
353.40509033203125 288.944061279296875 20
362.346588134765625 286.463470458984375 20
371.329986572265625 284.139312744140625 20
380.35260009765625 281.972259521484375 20
389.411651611328125 279.963043212890625 20
398.50439453125 278.112213134765625 20
407.6280517578125 276.42034912109375 20
415 263.657257080078125 9.73411464691162109
406.168853759765625 132.811508178710938 -108.280998229980469
151.576873779296875 384.844696044921875 -24.7926902770996094
159.09588623046875 379.099334716796875 -24.4534740447998047
190.982437133789062 390 2.87808728218078613
202.058700561523438 390 9.25851058959960938
212.857498168945312 390 15.3314638137817383
222.753250122070312 389.048095703125 20
229.967575073242188 384.272064208984375 20
237.26416015625 379.622650146484375 20
244.640777587890625 375.101318359375 20
252.095169067382812 370.709381103515625 20
259.625091552734375 366.4482421875 20
267.22821044921875 362.31915283203125 20
274.902252197265625 358.3233642578125 20
282.64483642578125 354.462158203125 20
290.45367431640625 350.73663330078125 20
298.3262939453125 347.147979736328125 20
306.2603759765625 343.697265625 20
314.25347900390625 340.385528564453125 20
322.303131103515625 337.21380615234375 20
330.40692138671875 334.18304443359375 20
338.5623779296875 331.294189453125 20
346.76702880859375 328.548095703125 20
355.018341064453125 325.94561767578125 20
363.313812255859375 323.487548828125 20
371.650909423828125 321.17462158203125 20
380.027099609375 319.007537841796875 20
388.439849853515625 316.98699951171875 20
396.8865966796875 315.113555908203125 20
405.364715576171875 313.3878173828125 20
413.8717041015625 311.810333251953125 20
151.576873779296875 384.844696044921875 -62.7474288940429688
159.088912963867188 379.090728759765625 -62.3951950073242188
253.594711303710938 390 3.33284687995910645
263.235015869140625 390 8.41407108306884766
272.68292236328125 390 13.2456111907958984
281.94970703125 390 17.8376598358154297
290.08404541015625 388.112457275390625 20
297.304473876953125 384.511627197265625 20
304.58660888671875 381.037384033203125 20
311.92828369140625 377.690765380859375 20
319.327239990234375 374.4727783203125 20
326.781219482421875 371.384429931640625 20
334.2879638671875 368.426605224609375 20
341.84521484375 365.60028076171875 20
349.45062255859375 362.90625 20
357.101898193359375 360.345367431640625 20
364.79669189453125 357.918426513671875 20
372.53265380859375 355.626129150390625 20
380.307464599609375 353.469207763671875 20
388.118743896484375 351.448272705078125 20
395.964080810546875 349.563995361328125 20
403.84112548828125 347.816925048828125 20
411.7474365234375 346.20758056640625 20
151.576873779296875 384.844696044921875 -103.558059692382812
159.095016479492188 379.0982666015625 -103.169486999511719
317.410064697265625 390 0.195623576641082764
325.91986083984375 390 3.97531771659851074
334.304443359375 390 7.54939508438110352
342.571533203125 390 10.9244232177734375
350.72857666015625 390 14.1065053939819336
358.7825927734375 390 17.1013011932373047
366.740325927734375 390 19.9140663146972656
373.938690185546875 387.810546875 20
381.151580810546875 385.673248291015625 20
388.40069580078125 383.66217041015625 20
395.68377685546875 381.77789306640625 20
402.9986572265625 380.021026611328125 20
410.34307861328125 378.39208984375 20
415 362.932159423828125 4.16359949111938477
373.017425537109375 384.798248291015625 -18.8466777801513672
380.48577880859375 383.352081298828125 -17.9680767059326172
398.33660888671875 359.836181640625 -39.8381118774414062
405.99658203125 357.952880859375 -40.0532112121582031
373.017425537109375 384.798248291015625 -57.2633209228515625
380.48577880859375 383.352081298828125 -56.3196678161621094
398.33660888671875 359.836181640625 -79.8090133666992188
405.99658203125 357.952880859375 -80.0400390625
362.0472412109375 375.56072998046875 -116
373.017425537109375 384.798248291015625 -99.2851943969726562
380.48577880859375 383.352081298828125 -98.2703857421875
384.449737548828125 368.922515869140625 -116
399.05694580078125 362.95489501953125 -119.113044738769531
406.673126220703125 361.134368896484375 -119.289985656738281
