ply
format ascii 1.0
element vertex 647
property float x
property float y
property float z
end_header
-251.01947021484375 -102.121986389160156 272.524658203125
-230.983062744140625 -92.3322906494140625 274.939697265625
-212.697250366210938 -93.9276504516601562 275.079742431640625
-195.499618530273438 -105.86553955078125 273.16033935546875
-24.7098293304443359 -230.997695922851562 250.069122314453125
-4.78293609619140625 -222.188858032226562 251.587570190429688
15.7325582504272461 -225.290237426757812 250.746673583984375
195.766891479492188 -105.520248413085938 268.502288818359375
212.364593505859375 -94.0320205688476562 269.9117431640625
231.333724975585938 -92.4043502807617188 269.30999755859375
254.73419189453125 -106.167579650878906 265.5655517578125
-250.600296020507812 105.469924926757812 280
-236.13909912109375 99.034088134765625 279.134368896484375
-220.83184814453125 97.357635498046875 279.3043212890625
-205.199249267578125 98.2341156005859375 280
-212.697250366210938 -93.9276504516601562 236.80316162109375
-195.499618530273438 -105.86553955078125 234.557098388671875
-34.2053070068359375 16.7834949493408203 263.447357177734375
-18.5932884216308594 33.2564620971679688 266.99542236328125
-2.65555047988891602 38.0274848937988281 267.84698486328125
13.7883682250976562 35.5440826416015625 267.0013427734375
31.5342559814453125 21.4375076293945312 263.461578369140625
195.766891479492188 -105.520248413085938 229.106353759765625
212.364593505859375 -94.0320205688476562 230.755661010742188
231.333724975585938 -92.4043502807617188 230.051513671875
189.554351806640625 125.800704956054688 280
213.48486328125 99.160797119140625 272.729461669921875
230.59478759765625 97.5421981811523438 271.249664306640625
245.225082397460938 104.045768737792969 271.628387451171875
256.425201416015625 120.199501037597656 274.2598876953125
-257.27777099609375 150.244644165039062 258.6015625
-239.63555908203125 165.180526733398438 263.256744384765625
-224.5745849609375 168.101028442382812 264.674774169921875
-210.5556640625 165.2625732421875 264.5203857421875
-197.353958129882812 156.21807861328125 262.688385009765625
-212.697250366210938 -93.9276504516601562 197.980224609375
-195.499618530273438 -105.86553955078125 195.402862548828125
-34.2053070068359375 16.7834949493408203 228.554580688476562
-18.5932884216308594 33.2564620971679688 232.626022338867188
-2.65555047988891602 38.0274848937988281 233.603195190429688
13.7883682250976562 35.5440826416015625 232.6328125
31.5342559814453125 21.4375076293945312 228.5709228515625
195.766891479492188 -105.520248413085938 189.148117065429688
212.364593505859375 -94.0320205688476562 191.040695190429688
231.333724975585938 -92.4043502807617188 190.232681274414062
187.13189697265625 134.422012329101562 249.86590576171875
196.689498901367188 155.519058227539062 254.42181396484375
209.405242919921875 164.768890380859375 255.74566650390625
223.923416137695312 168.101028442382812 255.408523559570312
240.862091064453125 164.6541748046875 253.148788452148438
-257.27777099609375 150.244644165039062 227.0623779296875
-239.63555908203125 165.180526733398438 232.325790405273438
-224.5745849609375 168.101028442382812 233.9290771484375
-210.5556640625 165.2625732421875 233.754531860351562
-197.353958129882812 156.21807861328125 231.68316650390625
-212.697250366210938 -93.9276504516601562 158.520767211914062
-195.499618530273438 -105.86553955078125 155.606674194335938
-44.4826545715332031 -257.8021240234375 112.887008666992188
-34.2053070068359375 16.7834949493408203 193.0897216796875
-31.9728641510009766 280.73382568359375 270.197418212890625
-20.4063014984130859 292.21826171875 273.34161376953125
-8.61247062683105469 297.127349853515625 274.506072998046875
3.47397112846374512 297.944244384765625 274.4146728515625
16.0656242370605469 294.56683349609375 273.031768798828125
29.8028717041015625 283.743682861328125 269.390106201171875
195.766891479492188 -105.520248413085938 148.534713745117188
212.364593505859375 -94.0320205688476562 150.674575805664062
231.333724975585938 -92.4043502807617188 149.761001586914062
187.13189697265625 134.422012329101562 217.185409545898438
196.688751220703125 155.521560668945312 222.337326049804688
209.405242919921875 164.768890380859375 223.8333740234375
223.923416137695312 168.101028442382812 223.452178955078125
240.862091064453125 164.6541748046875 220.897201538085938
-407.23468017578125 -364.6375732421875 20
-384.736053466796875 -369.689453125 20
-257.27777099609375 150.244644165039062 194.937911987304688
-239.63555908203125 165.180526733398438 200.820816040039062
-224.5745849609375 168.101028442382812 202.612808227539062
-210.5556640625 165.2625732421875 202.417724609375
-197.353958129882812 156.21807861328125 200.102554321289062
-211.925125122070312 -87.4575881958007812 120.459602355957031
-194.62750244140625 -97.4340286254882812 117.84356689453125
-44.4864044189453125 -257.636199951171875 67.3784942626953125
-34.2053070068359375 16.7834949493408203 156.966705322265625
-31.9728641510009766 280.73382568359375 243.149887084960938
-20.4063014984130859 292.21826171875 246.664154052734375
-8.61247062683105469 297.127349853515625 247.965682983398438
3.47397112846374512 297.944244384765625 247.863510131835938
16.0656242370605469 294.56683349609375 246.317825317382812
29.8028717041015625 283.743682861328125 242.247573852539062
142.466232299804688 -386.767578125 20
165.244644165039062 -383.182373046875 20
187.96392822265625 -379.2398681640625 20
210.618484497070312 -374.940948486328125 20
180.7227783203125 -125.37738037109375 101.898040771484375
194.037551879882812 -98.026458740234375 109.682334899902344
210.826614379882812 -87.8148651123046875 111.653488159179688
229.565292358398438 -85.70855712890625 110.802688598632812
187.13189697265625 134.422012329101562 183.8984375
196.689498901367188 155.519058227539062 189.655868530273438
209.405242919921875 164.768890380859375 191.328857421875
223.923416137695312 168.101028442382812 190.902801513671875
240.862091064453125 164.6541748046875 188.047088623046875
-395.1690673828125 -220.98809814453125 20
-374.92828369140625 -225.868179321289062 20
-354.61334228515625 -230.429733276367188 20
-257.27777099609375 150.244644165039062 162.146377563476562
-239.63555908203125 165.180526733398438 168.661651611328125
-224.5745849609375 168.101028442382812 170.646270751953125
-210.5556640625 165.2625732421875 170.430206298828125
-197.353958129882812 156.21807861328125 167.866180419921875
-211.923431396484375 -87.4434051513671875 79.6674728393554688
-194.625625610351562 -97.415924072265625 76.7716598510742188
-190.0289306640625 -255.336593627929688 20
-169.27392578125 -256.990234375 20
-148.495513916015625 -258.31768798828125 20
-127.698806762695312 -259.318572998046875 20
-106.888946533203125 -259.99267578125 20
-86.0710601806640625 -260.33984375 20
-65.2502975463867188 -260.3599853515625 20
-45.1804771423339844 -226.923873901367188 32
-34.6333541870117188 27.9532527923583984 124.141426086425781
-31.9728641510009766 280.73382568359375 215.540725708007812
-20.4063014984130859 292.21826171875 219.4327392578125
-8.61247062683105469 297.127349853515625 220.874176025390625
3.47397112846374512 297.944244384765625 220.761032104492188
16.0656242370605469 294.56683349609375 219.0491943359375
29.8028717041015625 283.743682861328125 214.541427612304688
121.419532775878906 -245.85028076171875 20
141.987106323242188 -242.613067626953125 20
162.501296997070312 -239.053207397460938 20
182.957046508789062 -235.171554565429688 20
180.7227783203125 -125.37738037109375 59.10552978515625
194.037551879882812 -98.026458740234375 67.7265701293945312
210.826614379882812 -87.8148651123046875 69.90960693359375
229.563308715820312 -85.7010498046875 68.9701614379882812
187.13189697265625 134.422012329101562 149.920257568359375
196.689498901367188 155.519058227539062 156.296554565429688
209.405242919921875 164.768890380859375 158.149383544921875
223.923416137695312 168.101028442382812 157.677536010742188
240.862091064453125 164.6541748046875 154.514862060546875
383.198272705078125 -178.906585693359375 20
402.682037353515625 -171.565780639648438 20
-402.79852294921875 -95.0783538818359375 20
-384.53448486328125 -100.09381103515625 20
-366.193939208984375 -104.821762084960938 20
-347.781402587890625 -109.261054992675781 20
-329.3013916015625 -113.41058349609375 20
-257.27777099609375 150.244644165039062 128.599899291992188
-239.63555908203125 165.180526733398438 135.762100219726562
-224.5745849609375 168.101028442382812 137.943771362304688
-210.5556640625 165.2625732421875 137.706253051757812
-197.353958129882812 156.21807861328125 134.88763427734375
-186.005722045898438 129.735443115234375 125
-194.626861572265625 -97.4278106689453125 34.7433204650878906
-176.952880859375 -106.038215637207031 32
-160.0487060546875 -128.461105346679688 23.6362342834472656
-141.801025390625 -138.779571533203125 20
-122.882766723632812 -139.6900634765625 20
-103.952545166015625 -140.30328369140625 20
-85.0150299072265625 -140.619094848632812 20
-66.0748825073242188 -140.63739013671875 20
-47.1367874145507812 -140.358200073242188 20
-34.6333541870117188 27.9532527923583984 86.8213272094726562
-31.9728641510009766 280.73382568359375 187.295928955078125
-20.4063014984130859 292.21826171875 191.57440185546875
-8.61247062683105469 297.127349853515625 193.158950805664062
3.47397112846374512 297.944244384765625 193.034576416015625
16.0656242370605469 294.56683349609375 191.15277099609375
29.8028717041015625 283.743682861328125 186.197418212890625
103.734115600585938 -127.438285827636719 20
122.443939208984375 -124.493476867675781 20
141.105194091796875 -121.255149841308594 20
159.713287353515625 -117.724098205566406 20
173.280487060546875 -90.64630126953125 29.4675235748291016
189.973342895507812 -80.4148788452148438 32
207.933914184570312 -76.1212844848632812 32
225.8248291015625 -71.5461044311523438 32
183.699172973632812 146.638717651367188 120.211410522460938
194.658615112304688 162.3338623046875 125
208.805679321289062 166.671112060546875 125
222.882858276367188 171.230026245117188 125
238.104202270507812 172.531814575195312 123.533210754394531
259.02166748046875 158.693435668945312 115.53497314453125
359.591766357421875 -59.8634910583496094 20
377.2086181640625 -52.9081802368164062 20
394.714019775390625 -45.6770172119140625 20
412.10369873046875 -38.1717796325683594 20
-408.166046142578125 13.2282514572143555 20
-391.6025390625 8.11512851715087891 20
-374.9608154296875 3.26280379295349121 20
-358.244873046875 -1.32752490043640137 20
-341.45892333984375 -5.65472507476806641 20
-324.607086181640625 -9.71772861480712891 20
-307.6934814453125 -13.5155344009399414 20
-254.689437866210938 163.191650390625 99.9461746215820312
-238.295242309570312 172.479461669921875 105.2567138671875
-223.505447387695312 174.486221313476562 107.228584289550781
-209.56964111328125 171.778228759765625 107.019416809082031
-196.298538208007812 164.018630981445312 104.497276306152344
-183.926986694335938 147.154312133789062 97.900238037109375
-187.921829223632812 -32.6041984558105469 20
-170.665618896484375 -34.2522201538085938 20
-153.385650634765625 -35.6289901733398438 20
-136.086181640625 -36.7341690063476562 20
-118.771492004394531 -37.5674858093261719 20
-101.445846557617188 -38.1287307739257812 20
-84.113525390625 -38.4177665710449219 20
-66.7788009643554688 -38.4345207214355469 20
-50.0692901611328125 -10.5966711044311523 32
-34.6333541870117188 27.9532527923583984 48.555633544921875
-31.9728641510009766 280.73382568359375 158.335494995117188
-20.4063014984130859 292.21826171875 163.01019287109375
-8.61247062683105469 297.127349853515625 164.741500854492188
3.47397112846374512 297.944244384765625 164.605606079101562
16.0656242370605469 294.56683349609375 162.549514770507812
29.8028717041015625 283.743682861328125 157.135223388671875
88.6367111206054688 -26.3542022705078125 20
105.760635375976562 -23.6590042114257812 20
122.840110778808594 -20.6951675415039062 20
139.870925903320312 -17.4634227752685547 20
156.848876953125 -13.9645700454711914 20
173.769790649414062 -10.1994695663452148 20
190.62945556640625 -6.1690521240234375 20
207.423751831054688 -1.87431132793426514 20
183.699172973632812 146.638717651367188 85.0380630493164062
194.5987548828125 162.534744262695312 90.3613128662109375
207.47039794921875 170.907455444335938 92.2021102905273438
221.82757568359375 174.403335571289062 91.7246932983398438
238.0992431640625 172.546005249023438 88.6740493774414062
259.0089111328125 158.728103637695312 79.9445953369140625
322.807159423828125 35.4927597045898438 20
338.93072509765625 41.8585166931152344 20
354.95233154296875 48.4767494201660156 20
370.868011474609375 55.3458175659179688 20
386.673828125 62.4640350341796875 20
402.36590576171875 69.8296432495117188 20
-411.66058349609375 107.639442443847656 20
-396.579620361328125 102.45977783203125 20
-381.419158935546875 97.51763916015625 20
-366.18292236328125 92.814239501953125 20
-350.87469482421875 88.350738525390625 20
-335.498260498046875 84.1282424926757812 20
-320.057403564453125 80.1477890014648438 20
-304.555908203125 76.4103622436523438 20
-288.997650146484375 72.9168777465820312 20
-254.689437866210938 163.191650390625 65.0966339111328125
-238.295242309570312 172.479461669921875 70.869781494140625
-223.505447387695312 174.486221313476562 73.013427734375
-209.571426391601562 171.76641845703125 72.7803802490234375
-196.297515869140625 164.026138305664062 70.047760009765625
-183.926712036132812 147.156707763671875 62.8736076354980469
-178.823486328125 55.3578262329101562 20
-162.950042724609375 53.8418617248535156 20
-147.05474853515625 52.5754127502441406 20
-131.141510009765625 51.5587921142578125 20
-115.214279174804688 50.7922554016113281 20
-99.2769699096679688 50.2759819030761719 20
-83.3335189819335938 50.0101089477539062 20
-67.3878555297851562 49.9946937561035156 20
-51.4439201354980469 50.2297477722167969 20
-43.8290061950683594 267.910552978515625 122.773948669433594
-31.9728641510009766 280.73382568359375 128.572357177734375
-20.4063014984130859 292.21826171875 133.654296875
-8.61247062683105469 297.127349853515625 135.536407470703125
3.47397112846374512 297.944244384765625 135.388671875
16.0656242370605469 294.56683349609375 133.153488159179688
29.8028717041015625 283.743682861328125 127.267547607421875
75.573944091796875 61.1069984436035156 20
91.3256988525390625 63.5862236022949219 20
107.036575317382812 66.31256103515625 20
122.702682495117188 69.28533935546875 20
138.320159912109375 72.5038299560546875 20
153.885162353515625 75.96722412109375 20
169.393844604492188 79.6746749877929688 20
178.361831665039062 108.162490844726562 32
183.699172973632812 146.638717651367188 48.8898429870605469
194.5987548828125 162.534744262695312 54.6768035888671875
207.47039794921875 170.907455444335938 56.6779594421386719
221.82757568359375 174.403335571289062 56.1589546203613281
238.094131469726562 172.56060791015625 52.8498764038085938
259.001861572265625 158.747299194335938 43.3623390197753906
281.845916748046875 141.675949096679688 32
305.811492919921875 123.853713989257812 20
320.54925537109375 129.941619873046875 20
335.1895751953125 136.26025390625 20
349.728851318359375 142.808074951171875 20
364.163482666015625 149.583465576171875 20
378.489898681640625 156.584747314453125 20
392.70458984375 163.810195922851562 20
406.804046630859375 171.258026123046875 20
-413.5693359375 190.873855590820312 20
-399.7955322265625 185.653945922851562 20
-385.941436767578125 180.651031494140625 20
-372.01043701171875 175.866348266601562 20
-358.00604248046875 171.301071166992188 20
-343.931640625 166.956314086914062 20
-329.790740966796875 162.833175659179688 20
-315.586822509765625 158.932662963867188 20
-301.323394775390625 155.2557373046875 20
-287.00396728515625 151.803298950195312 20
-267.674652099609375 171.494720458984375 32.0026512145996094
-253.615463256835938 168.563735961914062 32
-238.295242309570312 172.479461669921875 35.4454765319824219
-223.506439208984375 174.480300903320312 37.7630081176757812
-209.573272705078125 171.754226684570312 37.5074920654296875
-196.299468994140625 164.01171875 34.5481605529785156
-182.720428466796875 157.264816284179688 32
-168.447189331054688 155.675064086914062 32
-156.196151733398438 130.95574951171875 20
-141.512939453125 129.785873413085938 20
-126.813163757324219 128.846771240234375 20
-112.100448608398438 128.138687133789062 20
-97.3784255981445312 127.661788940429688 20
-82.6507339477539062 127.416183471679688 20
-67.9209976196289062 127.401947021484375 20
-53.1928520202636719 127.61907958984375 20
-43.8290061950683594 267.910552978515625 91.6342849731445312
-32.4975357055664062 290.4384765625 102.886138916015625
-20.9007339477539062 299.29852294921875 107.045799255371094
-9.16346836090087891 303.561553955078125 108.755828857421875
2.81580805778503418 304.4298095703125 108.627174377441406
15.2102870941162109 301.8538818359375 106.626289367675781
28.3993644714355469 294.27001953125 101.934654235839844
64.13934326171875 137.666885375976562 20
78.6899642944335938 139.957061767578125 20
93.2028121948242188 142.475509643554688 20
107.674308776855469 145.221603393554688 20
122.10089111328125 148.194656372070312 20
136.478988647460938 151.393951416015625 20
150.805068969726562 154.818710327148438 20
165.075592041015625 158.468048095703125 20
176.291549682617188 173.001663208007812 25.6681766510009766
188.310440063476562 183.63568115234375 29.1861953735351562
201.293212890625 190.505401611328125 30.6002922058105469
215.2266845703125 194.252578735351562 30.2276496887207031
230.32049560546875 194.76531982421875 27.9804172515869141
247.108474731445312 191.0819091796875 23.3026275634765625
263.119659423828125 190.219757080078125 20
276.820281982421875 195.628890991210938 20
290.434234619140625 201.2525634765625 20
303.958160400390625 207.089385986328125 20
317.388763427734375 213.137908935546875 20
330.722686767578125 219.396636962890625 20
343.9566650390625 225.864044189453125 20
357.08740234375 232.53851318359375 20
370.1116943359375 239.418411254882812 20
383.026336669921875 246.502044677734375 20
395.828094482421875 253.78765869140625 20
408.51385498046875 261.2734375 20
-414.109527587890625 264.96905517578125 20
-401.499481201171875 259.731536865234375 20
-388.808746337890625 254.692703247070312 20
-376.0404052734375 249.853836059570312 20
-363.1976318359375 245.216140747070312 20
-350.28363037109375 240.780731201171875 20
-337.301513671875 236.5487060546875 20
-324.254547119140625 232.5211181640625 20
-311.145904541015625 228.698974609375 20
-297.9788818359375 225.08319091796875 20
-284.75665283203125 221.6746826171875 20
-271.4825439453125 218.474273681640625 20
-258.1597900390625 215.482757568359375 20
-244.79168701171875 212.700881958007812 20
-231.381546020507812 210.129318237304688 20
-217.932662963867188 207.768722534179688 20
-204.448348999023438 205.619644165039062 20
-190.931961059570312 203.682647705078125 20
-177.386810302734375 201.95819091796875 20
-163.816238403320312 200.44671630859375 20
-150.223602294921875 199.148574829101562 20
-136.61224365234375 198.064102172851562 20
-122.985542297363281 197.193557739257812 20
-109.346847534179688 196.537155151367188 20
-95.69952392578125 196.095062255859375 20
-82.04693603515625 195.867385864257812 20
-68.3924560546875 195.85418701171875 20
-54.7394599914550781 196.055465698242188 20
-43.8290061950683594 267.910552978515625 59.4764060974121094
-32.4975357055664062 290.4384765625 71.61431884765625
-20.9007339477539062 299.29852294921875 76.1015472412109375
-9.16346836090087891 303.561553955078125 77.9462356567382812
2.81626510620117188 304.425323486328125 77.8049468994140625
15.2116641998291016 301.8421630859375 75.6424713134765625
28.3972702026367188 294.285736083984375 70.5966567993164062
50.8174057006835938 226.8634033203125 32
67.5160140991210938 207.4927978515625 20
80.9694366455078125 209.827392578125 20
94.3845291137695312 212.373016357421875 20
107.757980346679688 215.129058837890625 20
121.086494445800781 218.094802856445312 20
134.366775512695312 221.269546508789062 20
147.595550537109375 224.652496337890625 20
160.769561767578125 228.242813110351562 20
173.88555908203125 232.03961181640625 20
186.940292358398438 236.041961669921875 20
199.9305419921875 240.248870849609375 20
212.853118896484375 244.659317016601562 20
225.704833984375 249.272186279296875 20
238.482498168945312 254.086349487304688 20
251.182968139648438 259.100616455078125 20
263.8031005859375 264.31378173828125 20
276.339813232421875 269.724517822265625 20
288.78997802734375 275.33148193359375 20
301.150543212890625 281.133331298828125 20
313.418426513671875 287.128631591796875 20
325.590667724609375 293.315887451171875 20
337.6641845703125 299.69354248046875 20
349.636077880859375 306.26007080078125 20
361.503326416015625 313.013824462890625 20
373.26300048828125 319.95318603515625 20
384.912261962890625 327.07635498046875 20
396.44818115234375 334.38165283203125 20
400.478485107421875 352.94952392578125 27.3550224304199219
-413.44903564453125 331.481170654296875 20
-401.883819580078125 326.24578857421875 20
-390.237762451171875 321.1927490234375 20
-378.5137939453125 316.3232421875 20
-366.71478271484375 311.638458251953125 20
-354.8436279296875 307.139617919921875 20
-342.903289794921875 302.827789306640625 20
-330.896697998046875 298.70404052734375 20
-318.826812744140625 294.7694091796875 20
-306.69659423828125 291.024810791015625 20
-294.509063720703125 287.47125244140625 20
-282.267242431640625 284.109527587890625 20
-269.97412109375 280.940521240234375 20
-257.632720947265625 277.964996337890625 20
-245.246109008789062 275.183685302734375 20
-232.817352294921875 272.5972900390625 20
-220.3494873046875 270.2064208984375 20
-207.845626831054688 268.011688232421875 20
-195.308822631835938 266.013641357421875 20
-182.742172241210938 264.212738037109375 20
-170.1488037109375 262.609466552734375 20
-157.531784057617188 261.20416259765625 20
-144.894271850585938 259.99725341796875 20
-132.239349365234375 258.988983154296875 20
-119.570144653320312 258.179595947265625 20
-106.889801025390625 257.5693359375 20
-94.2014312744140625 257.158294677734375 20
-81.5081634521484375 256.946624755859375 20
-68.8131484985351562 256.934356689453125 20
-56.5760002136230469 277.321319580078125 32
-44.2040863037109375 277.698150634765625 32
-32.4975357055664062 290.4384765625 39.2380104064941406
-20.9007339477539062 299.29852294921875 44.0643730163574219
-9.16346836090087891 303.561553955078125 46.0484809875488281
2.8168938159942627 304.41912841796875 45.8928146362304688
15.2130908966064453 301.83001708984375 43.5633430480957031
28.3989791870117188 294.272918701171875 38.1357536315917969
42.0202140808105469 285.7646484375 32
54.2473373413085938 287.689117431640625 32
70.0535507202148438 269.92572021484375 20
82.5260086059570312 272.292449951171875 20
94.959747314453125 274.854827880859375 20
107.351707458496094 277.6121826171875 20
119.698829650878906 280.5638427734375 20
131.998062133789062 283.7091064453125 20
144.246383666992188 287.047119140625 20
156.440750122070312 290.5771484375 20
168.578170776367188 294.298248291015625 20
180.6556396484375 298.209564208984375 20
192.670196533203125 302.310089111328125 20
204.618850708007812 306.598846435546875 20
216.4986572265625 311.074737548828125 20
228.306716918945312 315.736663818359375 20
240.040069580078125 320.58349609375 20
251.69586181640625 325.614044189453125 20
263.271209716796875 330.8270263671875 20
274.763214111328125 336.221221923828125 20
286.169097900390625 341.79522705078125 20
297.48602294921875 347.547698974609375 20
308.711181640625 353.47723388671875 20
319.841827392578125 359.582366943359375 20
330.87518310546875 365.861572265625 20
341.808563232421875 372.31329345703125 20
352.6392822265625 378.93597412109375 20
363.364593505859375 385.727935791015625 20
375.77392578125 390 18.0815544128417969
391.2568359375 390 12.9201068878173828
407.07891845703125 390 7.52407693862915039
-412.530670166015625 390 18.8466968536376953
-401.099700927734375 386.402587890625 20
-390.398681640625 381.35443115234375 20
-379.619659423828125 376.4749755859375 20
-368.76531982421875 371.765411376953125 20
-357.83837890625 367.2269287109375 20
-346.841461181640625 362.86065673828125 20
-335.77734375 358.667633056640625 20
-324.648712158203125 354.64892578125 20
-313.458343505859375 350.805511474609375 20
-302.208984375 347.13836669921875 20
-290.903411865234375 343.648345947265625 20
-279.544403076171875 340.336334228515625 20
-268.134765625 337.203155517578125 20
-256.677337646484375 334.24957275390625 20
-245.174942016601562 331.476348876953125 20
-233.630386352539062 328.88409423828125 20
-222.046554565429688 326.473541259765625 20
-210.42626953125 324.245208740234375 20
-198.772430419921875 322.199676513671875 20
-187.087890625 320.337432861328125 20
-175.37554931640625 318.658966064453125 20
-163.638275146484375 317.1646728515625 20
-151.878997802734375 315.854949951171875 20
-140.1005859375 314.730072021484375 20
-128.305953979492188 313.79034423828125 20
-116.498031616210938 313.035980224609375 20
-104.679702758789062 312.467193603515625 20
-92.8539047241210938 312.0841064453125 20
-81.0235519409179688 311.8868408203125 20
-69.1915512084960938 311.875396728515625 20
-57.3608360290527344 312.0498046875 20
-45.5343170166015625 312.4100341796875 20
-33.8499031066894531 315.4527587890625 21.5933551788330078
-22.4156322479248047 320.99188232421875 24.6659317016601562
-10.9193010330200195 324.065093994140625 26.0507316589355469
0.730937719345092773 324.97418212890625 25.9359931945800781
12.6437902450561523 323.71917724609375 24.3152236938476562
24.9677352905273438 320.00732421875 20.9914436340332031
36.8889312744140625 320.120941162109375 20
48.5770454406738281 321.9605712890625 20
60.2348213195800781 323.98358154296875 20
71.8593826293945312 326.189422607421875 20
83.4478683471679688 328.577606201171875 20
94.997406005859375 331.14752197265625 20
106.505149841308594 333.898529052734375 20
117.968269348144531 336.8299560546875 20
129.383926391601562 339.941070556640625 20
140.749313354492188 343.231109619140625 20
152.061614990234375 346.699249267578125 20
163.318038940429688 350.34466552734375 20
174.515823364257812 354.16644287109375 20
185.652206420898438 358.163604736328125 20
196.724411010742188 362.335235595703125 20
207.729736328125 366.68023681640625 20
218.665451049804688 371.197601318359375 20
229.52886962890625 375.886138916015625 20
240.317291259765625 380.7447509765625 20
251.028076171875 385.772216796875 20
262.1407470703125 390 19.3112583160400391
275.48590087890625 390 15.4577407836914062
289.05010986328125 390 11.420414924621582
302.845733642578125 390 7.19262838363647461
316.885650634765625 390 2.76728034019470215
366.697906494140625 380.554595947265625 -18.9327507019042969
380.05206298828125 383.583892822265625 -21.983551025390625
-400.281036376953125 359.972320556640625 -30.0369987487792969
-375.879302978515625 384.91339111328125 -7.66660451889038086
-365.765533447265625 378.83062744140625 -8.72731590270996094
-348.58868408203125 390 2.80679011344909668
-336.3118896484375 390 5.89810514450073242
-324.183807373046875 390 8.83077716827392578
-312.195892333984375 390 11.6090488433837891
-300.3399658203125 390 14.2368869781494141
-288.6080322265625 390 16.7179927825927734
-276.99249267578125 390 19.0558204650878906
-265.986358642578125 388.23223876953125 20
-255.330734252929688 385.306121826171875 20
-244.630447387695312 382.5477294921875 20
-233.888168334960938 379.957733154296875 20
-223.106521606445312 377.53680419921875 20
-212.288177490234375 375.2855224609375 20
-201.435806274414062 373.2044677734375 20
-190.552093505859375 371.294097900390625 20
-179.63970947265625 369.554931640625 20
-168.701370239257812 367.987396240234375 20
-157.73974609375 366.59185791015625 20
-146.757553100585938 365.36865234375 20
-135.757492065429688 364.318115234375 20
-124.742301940917969 363.44049072265625 20
-113.714683532714844 362.735992431640625 20
-102.677360534667969 362.20477294921875 20
-91.6330490112304688 361.847015380859375 20
-80.5844802856445312 361.66278076171875 20
-69.5343856811523438 361.652099609375 20
-58.4854850769042969 361.814971923828125 20
-47.4405059814453125 362.151397705078125 20
-36.4021759033203125 362.6612548828125 20
-25.3732128143310547 363.34442138671875 20
-14.3563432693481445 364.200775146484375 20
-3.35428237915039062 365.23004150390625 20
7.63025379180908203 366.4320068359375 20
18.5945549011230469 367.80633544921875 20
29.5359172821044922 369.352752685546875 20
40.4516410827636719 371.07080078125 20
51.3390274047851562 372.960113525390625 20
62.1954002380371094 375.02020263671875 20
73.0180740356445312 377.250579833984375 20
83.8043746948242188 379.650634765625 20
94.5516510009765625 382.2198486328125 20
105.257240295410156 384.957550048828125 20
115.918510437011719 387.863067626953125 20
126.811676025390625 390 19.3338031768798828
138.413406372070312 390 17.0133838653564453
150.130599975585938 390 14.5500926971435547
161.970870971679688 390 11.9405078887939453
173.942092895507812 390 9.18095874786376953
186.052459716796875 390 6.26751232147216797
198.31048583984375 390 3.19596123695373535
366.709747314453125 380.536224365234375 -55.6671562194824219
380.05206298828125 383.583892822265625 -58.9189109802246094
-400.281036376953125 359.972320556640625 -66.5988006591796875
-375.879302978515625 384.91339111328125 -42.6853065490722656
-365.77032470703125 378.8193359375 -43.8281402587890625
-187.419998168945312 390 0.723567664623260498
-176.545730590820312 390 1.97195124626159668
-165.723037719726562 390 3.09180855751037598
-154.946258544921875 390 4.08455562591552734
-144.209808349609375 390 4.95144224166870117
-133.508193969726562 390 5.69355297088623047
-122.835983276367188 390 6.31181430816650391
-112.187820434570312 390 6.80699491500854492
-101.558372497558594 390 7.17970943450927734
-90.9423599243164062 390 7.43041801452636719
-80.3345260620117188 390 7.55943155288696289
-69.7296295166015625 390 7.56690883636474609
-59.1224441528320312 390 7.45285892486572266
-48.5077247619628906 390 7.21714115142822266
-37.8802146911621094 390 6.85946416854858398
-27.2346363067626953 390 6.37938594818115234
-16.5656757354736328 390 5.77631092071533203
-5.86797189712524414 390 5.04948949813842773
4.86389493942260742 390 4.19801521301269531
15.6354122161865234 390 3.22082233428955078
26.4521465301513672 390 2.11668181419372559
37.3197593688964844 390 0.884198606014251709
141.495773315429688 380.220794677734375 -23.7816905975341797
151.854095458984375 384.8173828125 -22.9197902679443359
366.7064208984375 380.541351318359375 -93.9924545288085938
380.05206298828125 383.583892822265625 -97.4729843139648438
-400.281036376953125 359.972320556640625 -104.876068115234375
-375.879302978515625 384.91339111328125 -79.3470687866210938
-365.773773193359375 378.811248779296875 -80.5739593505859375
-155.764511108398438 383.143341064453125 -34.7945404052734375
-144.877365112304688 383.546173095703125 -33.5443382263183594
141.489837646484375 380.2396240234375 -59.1510276794433594
151.854095458984375 384.8173828125 -58.2462692260742188
-374.97747802734375 386.947998046875 -116
-364.285247802734375 382.317047119140625 -115.993705749511719
-155.764511108398438 383.143341064453125 -70.3347930908203125
-144.877365112304688 383.546173095703125 -69.0015106201171875
141.492843627929688 380.2301025390625 -96.3181915283203125
151.854095458984375 384.8173828125 -95.34503173828125
-155.764511108398438 383.143341064453125 -107.779731750488281
-144.877365112304688 383.546173095703125 -106.358909606933594
