ply
format ascii 1.0
element vertex 80
property float x
property float y
property float z
end_header
-194.341384887695312 152.638137817382812 261.9647216796875
-202.628631591796875 -99.1494827270507812 213.868667602539062
20.2182235717773438 32.3491592407226562 273.012176513671875
1.46771204471588135 -221.898971557617188 214.897216796875
227.218582153320312 -91.9280776977539062 266.127166748046875
-194.341384887695312 152.638137817382812 153.044509887695312
13.0459804534912109 295.839141845703125 243.82269287109375
37.3240928649902344 267.853240966796875 242.276962280273438
-198.675674438476562 -94.0909194946289062 85.2870101928710938
-253.398223876953125 -275.749053955078125 20
20.2182235717773438 32.3491592407226562 169.1470947265625
-136.824630737304688 -348.6075439453125 20
4.49417781829833984 -215.695281982421875 86.962615966796875
231.47760009765625 167.566085815429688 248.885025024414062
260.808502197265625 143.01885986328125 244.466323852539062
227.218582153320312 -91.9280776977539062 159.111602783203125
-388.965362548828125 385.5703125 20
-366.0574951171875 339.613433837890625 20
-340.77581787109375 294.918426513671875 20
-313.18963623046875 251.607818603515625 20
-283.374542236328125 209.800323486328125 20
-232.626998901367188 185.3702392578125 32
-189.63494873046875 157.026138305664062 38.5710029602050781
13.0459804534912109 295.839141845703125 156.97515869140625
37.3240928649902344 267.853240966796875 154.9053955078125
-103.926795959472656 27.15863037109375 20
-48.5854530334472656 16.6954269409179688 32
23.6066169738769531 37.7705841064453125 60.1122589111328125
34.4750556945800781 -39.6431770324707031 30.1607856750488281
69.9532089233398438 -81.5163726806640625 20
231.47760009765625 167.566085815429688 163.753692626953125
260.808502197265625 143.01885986328125 157.83697509765625
229.141204833984375 -85.641571044921875 46.7630653381347656
269.23809814453125 -125.165168762207031 33.36590576171875
312.759918212890625 -162.783737182617188 20
363.40472412109375 -171.263656616210938 20
414.4239501953125 -177.0814208984375 20
-182.499832153320312 390 1.01163697242736816
-134.987228393554688 371.782501220703125 20
-111.705825805664062 339.136688232421875 20
-86.7477874755859375 307.75408935546875 20
-46.1769676208496094 290.777679443359375 32
17.8279609680175781 300.79010009765625 65.0228118896484375
42.3724479675292969 273.65960693359375 62.8803901672363281
40.2072982788085938 211.60614013671875 32
60.6477775573730469 172.665451049804688 20
94.0820465087890625 150.531280517578125 20
128.62890625 130.17724609375 20
172.588836669921875 128.86767578125 32
234.037368774414062 173.594924926757812 73.4946517944335938
263.931549072265625 151.59686279296875 67.533843994140625
276.00823974609375 67.6020889282226562 20
314.645965576171875 56.88299560546875 20
353.791717529296875 48.2007293701171875 20
393.338226318359375 41.5790939331054688 20
11.2877836227416992 390 0.231368288397789001
51.8713111877441406 382.19195556640625 20
74.351837158203125 359.311309814453125 20
97.9990386962890625 337.6385498046875 20
122.748100280761719 317.23309326171875 20
148.531173706054688 298.150848388671875 20
175.277603149414062 280.444183349609375 20
202.914077758789062 264.16156005859375 20
231.364837646484375 249.347625732421875 20
260.551910400390625 236.042999267578125 20
290.395294189453125 224.284133911132812 20
320.813201904296875 214.103271484375 20
351.72222900390625 205.528305053710938 20
383.037689208984375 198.582748413085938 20
414.673736572265625 193.28564453125 20
212.857498168945312 390 15.3314638137817383
237.26416015625 379.622650146484375 20
259.625091552734375 366.4482421875 20
282.64483642578125 354.462158203125 20
306.2603759765625 343.697265625 20
330.40692138671875 334.18304443359375 20
355.018341064453125 325.94561767578125 20
380.027099609375 319.007537841796875 20
405.364715576171875 313.3878173828125 20
373.017425537109375 384.798248291015625 -18.8466777801513672
