ply
format ascii 1.0
element vertex 10
property float x
property float y
property float z
end_header
-340.77581787109375 294.918426513671875 20
-232.626998901367188 185.3702392578125 32
37.3240928649902344 267.853240966796875 154.9053955078125
23.6066169738769531 37.7705841064453125 60.1122589111328125
231.47760009765625 167.566085815429688 163.753692626953125
269.23809814453125 -125.165168762207031 33.36590576171875
414.4239501953125 -177.0814208984375 20
237.26416015625 379.622650146484375 20
306.2603759765625 343.697265625 20
380.027099609375 319.007537841796875 20
